999
DXF file: _cgs_temp_output.dxf
999
Pro/ENGINEER 2016360 by Parametric Technology Corporation
  0
SECTION
  2
HEADER
  9
$ACADVER
  1
AC1021
  9
$DWGCODEPAGE
  3
ANSI_1252
  9
$EXTMAX
 10
22.0
 20
17.0
 30
0.0
  9
$EXTMIN
 10
0.0
 20
0.0
 30
0.0
  9
$LIMMIN
 10
0.0
 20
0.0
  9
$LIMMAX
 10
22.0
 20
17.0
  9
$VIEWCTR
 10
11.0
 20
8.5
  9
$VIEWSIZE
 40
17.0
  9
$CLAYER
  8
0
  9
$LTSCALE
 40
1.21
  9
$CELTYPE
  6
BYLAYER
  9
$DIMSCALE
 40
1.0
  9
$DIMASZ
 40
0.1875
  9
$DIMEXO
 40
0.0625
  9
$DIMDLI
 40
0.836
  9
$DIMEXE
 40
0.125
  9
$DIMCEN
 40
0.198
  9
$DIMLFAC
 40
1.0
  9
$DIMBLK
  1
_CLOSED
  9
$DIMALT
 70
0
  9
$DIMALTF
 40
25.4
  9
$DIMTXT
 40
0.15625
  9
$DIMTOL
 70
0
  9
$DIMLIM
 70
0
  9
$DIMTFAC
 40
1.0
  9
$DIMGAP
 40
0.09
  9
$DIMDSEP
 70
46
  9
$AUNITS
 70
0
  9
$PDMODE
 70
3
  9
$PDSIZE
 40
0.3125
  9
$HANDSEED
  5
2A8
  9
$TILEMODE
 70
1
  9
$MEASUREMENT
 70
0
  9
$INSUNITS
 70
1
  0
ENDSEC
  0
SECTION
  2
CLASSES
  0
CLASS
  1
ACDBDICTIONARYWDFLT
  2
AcDbDictionaryWithDefault
  3
AutoCAD 2000
 90
0
 91
1
280
0
281
0
  0
CLASS
  1
ACDBPLACEHOLDER
  2
AcDbPlaceHolder
  3
AutoCAD 2000
 90
0
 91
1
280
0
281
0
  0
CLASS
  1
LAYOUT
  2
AcDbLayout
  3
AutoCAD 2000
 90
0
 91
0
280
0
281
0
  0
ENDSEC
  0
SECTION
  2
TABLES
  0
TABLE
  2
VPORT
  5
8
100
AcDbSymbolTable
 70
2
  0
VPORT
  5
1F4
100
AcDbSymbolTableRecord
100
AcDbViewportTableRecord
  2
*ACTIVE
 70
0
 10
0.0
 20
0.0
 11
1.0
 21
1.0
 12
11.0
 22
8.5
 13
0.0
 23
0.0
 14
1.0
 24
1.0
 15
0.0
 25
0.0
 16
0.0
 26
0.0
 36
1.0
 17
0.0
 27
0.0
 37
0.0
 40
17.0
 41
1.2941176471
 42
50.0
 43
0.0
 44
0.0
 50
0.0
 51
0.0
 71
0
 72
100
 73
1
 74
1
 75
0
 76
0
 77
0
 78
0
  0
ENDTAB
  0
TABLE
  2
LTYPE
  5
5
100
AcDbSymbolTable
 70
6
  0
LTYPE
  5
14
100
AcDbSymbolTableRecord
100
AcDbLinetypeTableRecord
  2
BYBLOCK
 70
0
  3

 72
65
 73
0
 40
0.0
  0
LTYPE
  5
15
100
AcDbSymbolTableRecord
100
AcDbLinetypeTableRecord
  2
BYLAYER
 70
0
  3

 72
65
 73
0
 40
0.0
  0
LTYPE
  5
16
100
AcDbSymbolTableRecord
100
AcDbLinetypeTableRecord
  2
CONTINUOUS
 70
64
  3
Solid line
 72
65
 73
0
 40
0.0
  0
LTYPE
  5
1F5
100
AcDbSymbolTableRecord
100
AcDbLinetypeTableRecord
  2
CENTER
 70
64
  3
____ _ ____ _ ____ _ ____ _ ____ _ ____ _ ____
 72
65
 73
4
 40
0.6
 49
0.375
 74
0
 49
-0.075
 74
0
 49
0.075
 74
0
 49
-0.075
 74
0
  0
LTYPE
  5
1F6
100
AcDbSymbolTableRecord
100
AcDbLinetypeTableRecord
  2
HIDDEN
 70
64
  3
- - - - - - - - - - - - - - - - - - - -
 72
65
 73
2
 40
0.2
 49
0.1
 74
0
 49
-0.1
 74
0
  0
LTYPE
  5
1F7
100
AcDbSymbolTableRecord
100
AcDbLinetypeTableRecord
  2
PHANTOM
 70
64
  3
_____ _ _ _____ _ _ _____ _ _ _____
 72
65
 73
6
 40
0.8
 49
0.45
 74
0
 49
-0.05
 74
0
 49
0.1
 74
0
 49
-0.05
 74
0
 49
0.1
 74
0
 49
-0.05
 74
0
  0
LTYPE
  5
1F8
100
AcDbSymbolTableRecord
100
AcDbLinetypeTableRecord
  2
DOT
 70
64
  3
. . . . . . . . . . . . . . . . . . . .
 72
65
 73
2
 40
0.2
 49
0.1
 74
0
 49
-0.1
 74
0
  0
LTYPE
  5
1F9
100
AcDbSymbolTableRecord
100
AcDbLinetypeTableRecord
  2
DASHED
 70
64
  3
- - - - - - - - - - - - - - - - - - - -
 72
65
 73
2
 40
0.2
 49
0.1
 74
0
 49
-0.1
 74
0
  0
ENDTAB
  0
TABLE
  2
LAYER
  5
2
100
AcDbSymbolTable
 70
36
  0
LAYER
  5
10
100
AcDbSymbolTableRecord
100
AcDbLayerTableRecord
  2
0
 70
0
 62
7
  6
CONTINUOUS
370
-3
390
F
  0
LAYER
  5
1FA
100
AcDbSymbolTableRecord
100
AcDbLayerTableRecord
  2
DEFAULT_1
 70
0
 62
7
  6
CENTER
370
-3
390
F
  0
LAYER
  5
1FB
100
AcDbSymbolTableRecord
100
AcDbLayerTableRecord
  2
DEFAULT_2
 70
0
 62
8
  6
HIDDEN
370
-3
390
F
  0
LAYER
  5
1FC
100
AcDbSymbolTableRecord
100
AcDbLayerTableRecord
  2
DEFAULT_3
 70
0
 62
7
  6
PHANTOM
370
-3
390
F
  0
LAYER
  5
1FD
100
AcDbSymbolTableRecord
100
AcDbLayerTableRecord
  2
01_ALL_DTM_PLN
 70
0
 62
7
  6
CONTINUOUS
370
-3
390
F
  0
LAYER
  5
1FE
100
AcDbSymbolTableRecord
100
AcDbLayerTableRecord
  2
01__ASM_ALL_DTM_PLN
 70
0
 62
7
  6
CONTINUOUS
370
-3
390
F
  0
LAYER
  5
1FF
100
AcDbSymbolTableRecord
100
AcDbLayerTableRecord
  2
01__ASM_DEF_DTM_PLN
 70
0
 62
7
  6
CONTINUOUS
370
-3
390
F
  0
LAYER
  5
200
100
AcDbSymbolTableRecord
100
AcDbLayerTableRecord
  2
01___PRT_ALL_DTM_PLN
 70
0
 62
7
  6
CONTINUOUS
370
-3
390
F
  0
LAYER
  5
201
100
AcDbSymbolTableRecord
100
AcDbLayerTableRecord
  2
01___PRT_DEF_DTM_PLN
 70
0
 62
7
  6
CONTINUOUS
370
-3
390
F
  0
LAYER
  5
202
100
AcDbSymbolTableRecord
100
AcDbLayerTableRecord
  2
02_ALL_AXES
 70
0
 62
7
  6
CONTINUOUS
370
-3
390
F
  0
LAYER
  5
203
100
AcDbSymbolTableRecord
100
AcDbLayerTableRecord
  2
02__ASM_ALL_AXES
 70
0
 62
7
  6
CONTINUOUS
370
-3
390
F
  0
LAYER
  5
204
100
AcDbSymbolTableRecord
100
AcDbLayerTableRecord
  2
02___PRT_ALL_AXES
 70
0
 62
7
  6
CONTINUOUS
370
-3
390
F
  0
LAYER
  5
205
100
AcDbSymbolTableRecord
100
AcDbLayerTableRecord
  2
03_ALL_CURVES
 70
0
 62
7
  6
CONTINUOUS
370
-3
390
F
  0
LAYER
  5
206
100
AcDbSymbolTableRecord
100
AcDbLayerTableRecord
  2
03__ASM_ALL_CURVES
 70
0
 62
7
  6
CONTINUOUS
370
-3
390
F
  0
LAYER
  5
207
100
AcDbSymbolTableRecord
100
AcDbLayerTableRecord
  2
03___PRT_ALL_CURVES
 70
0
 62
7
  6
CONTINUOUS
370
-3
390
F
  0
LAYER
  5
208
100
AcDbSymbolTableRecord
100
AcDbLayerTableRecord
  2
04_ALL_DTM_PNT
 70
0
 62
7
  6
CONTINUOUS
370
-3
390
F
  0
LAYER
  5
209
100
AcDbSymbolTableRecord
100
AcDbLayerTableRecord
  2
04__ASM_ALL_DTM_PNT
 70
0
 62
7
  6
CONTINUOUS
370
-3
390
F
  0
LAYER
  5
20A
100
AcDbSymbolTableRecord
100
AcDbLayerTableRecord
  2
04___PRT_ALL_DTM_PNT
 70
0
 62
7
  6
CONTINUOUS
370
-3
390
F
  0
LAYER
  5
20B
100
AcDbSymbolTableRecord
100
AcDbLayerTableRecord
  2
05_ALL_DTM_CSYS
 70
0
 62
7
  6
CONTINUOUS
370
-3
390
F
  0
LAYER
  5
20C
100
AcDbSymbolTableRecord
100
AcDbLayerTableRecord
  2
05__ASM_ALL_DTM_CSYS
 70
0
 62
7
  6
CONTINUOUS
370
-3
390
F
  0
LAYER
  5
20D
100
AcDbSymbolTableRecord
100
AcDbLayerTableRecord
  2
05__ASM_DEF_DTM_CSYS
 70
0
 62
7
  6
CONTINUOUS
370
-3
390
F
  0
LAYER
  5
20E
100
AcDbSymbolTableRecord
100
AcDbLayerTableRecord
  2
05___PRT_ALL_DTM_CSYS
 70
0
 62
7
  6
CONTINUOUS
370
-3
390
F
  0
LAYER
  5
20F
100
AcDbSymbolTableRecord
100
AcDbLayerTableRecord
  2
05___PRT_DEF_DTM_CSYS
 70
0
 62
7
  6
CONTINUOUS
370
-3
390
F
  0
LAYER
  5
210
100
AcDbSymbolTableRecord
100
AcDbLayerTableRecord
  2
06_ALL_SURFS
 70
0
 62
7
  6
CONTINUOUS
370
-3
390
F
  0
LAYER
  5
211
100
AcDbSymbolTableRecord
100
AcDbLayerTableRecord
  2
06__ASM_ALL_SURFS
 70
0
 62
7
  6
CONTINUOUS
370
-3
390
F
  0
LAYER
  5
212
100
AcDbSymbolTableRecord
100
AcDbLayerTableRecord
  2
06___PRT_ALL_SURFS
 70
0
 62
7
  6
CONTINUOUS
370
-3
390
F
  0
LAYER
  5
213
100
AcDbSymbolTableRecord
100
AcDbLayerTableRecord
  2
07__ASM_ALL_SKELETONS
 70
0
 62
7
  6
CONTINUOUS
370
-3
390
F
  0
LAYER
  5
214
100
AcDbSymbolTableRecord
100
AcDbLayerTableRecord
  2
LAYER_AXIS
 70
0
 62
7
  6
CONTINUOUS
370
-3
390
F
  0
LAYER
  5
215
100
AcDbSymbolTableRecord
100
AcDbLayerTableRecord
  2
LAYER_CURVE
 70
0
 62
7
  6
CONTINUOUS
370
-3
390
F
  0
LAYER
  5
216
100
AcDbSymbolTableRecord
100
AcDbLayerTableRecord
  2
LAYER_CURVE_ENT
 70
0
 62
7
  6
CONTINUOUS
370
-3
390
F
  0
LAYER
  5
217
100
AcDbSymbolTableRecord
100
AcDbLayerTableRecord
  2
LAYER_DATUM
 70
0
 62
7
  6
CONTINUOUS
370
-3
390
F
  0
LAYER
  5
218
100
AcDbSymbolTableRecord
100
AcDbLayerTableRecord
  2
LAYER_DATUM_POINT
 70
0
 62
7
  6
CONTINUOUS
370
-3
390
F
  0
LAYER
  5
219
100
AcDbSymbolTableRecord
100
AcDbLayerTableRecord
  2
LAYER_DEF_DATUM
 70
0
 62
7
  6
CONTINUOUS
370
-3
390
F
  0
LAYER
  5
21A
100
AcDbSymbolTableRecord
100
AcDbLayerTableRecord
  2
LAYER_DIM
 70
0
 62
7
  6
CONTINUOUS
370
-3
390
F
  0
LAYER
  5
21B
100
AcDbSymbolTableRecord
100
AcDbLayerTableRecord
  2
LAYER_FEATURE
 70
0
 62
7
  6
CONTINUOUS
370
-3
390
F
  0
LAYER
  5
21C
100
AcDbSymbolTableRecord
100
AcDbLayerTableRecord
  2
LAYER_GEOM_FEAT
 70
0
 62
7
  6
CONTINUOUS
370
-3
390
F
  0
LAYER
  5
21D
100
AcDbSymbolTableRecord
100
AcDbLayerTableRecord
  2
LAYER_NOGEOM_FEAT
 70
0
 62
7
  6
CONTINUOUS
370
-3
390
F
  0
LAYER
  5
21E
100
AcDbSymbolTableRecord
100
AcDbLayerTableRecord
  2
LAYER_PARAMETER_DIM
 70
0
 62
7
  6
CONTINUOUS
370
-3
390
F
  0
LAYER
  5
21F
100
AcDbSymbolTableRecord
100
AcDbLayerTableRecord
  2
LAYER_POINT
 70
0
 62
7
  6
CONTINUOUS
370
-3
390
F
  0
LAYER
  5
220
100
AcDbSymbolTableRecord
100
AcDbLayerTableRecord
  2
LAYER_PROTRUSION_FEAT
 70
0
 62
7
  6
CONTINUOUS
370
-3
390
F
  0
LAYER
  5
221
100
AcDbSymbolTableRecord
100
AcDbLayerTableRecord
  2
LAYER_QUILT
 70
0
 62
7
  6
CONTINUOUS
370
-3
390
F
  0
LAYER
  5
222
100
AcDbSymbolTableRecord
100
AcDbLayerTableRecord
  2
LAYER_SURFACE
 70
0
 62
7
  6
CONTINUOUS
370
-3
390
F
  0
ENDTAB
  0
TABLE
  2
STYLE
  5
3
100
AcDbSymbolTable
 70
1
  0
STYLE
  5
11
100
AcDbSymbolTableRecord
100
AcDbTextStyleTableRecord
  2
STANDARD
 70
0
 40
0.0
 41
0.8
 50
0.0
 71
0
 42
0.2
  3
txt
  4

  0
STYLE
  5
223
100
AcDbSymbolTableRecord
100
AcDbTextStyleTableRecord
  2
TEXTSTYLE_1
 70
0
 40
0.0
 41
0.8
 50
0.0
 71
0
 42
0.2
  3
gdt
  4

  0
ENDTAB
  0
TABLE
  2
VIEW
  5
6
100
AcDbSymbolTable
 70
0
  0
ENDTAB
  0
TABLE
  2
UCS
  5
7
100
AcDbSymbolTable
 70
0
  0
ENDTAB
  0
TABLE
  2
APPID
  5
9
100
AcDbSymbolTable
 70
1
  0
APPID
  5
224
100
AcDbSymbolTableRecord
100
AcDbRegAppTableRecord
  2
ACAD
 70
0
  0
ENDTAB
  0
TABLE
  2
BLOCK_RECORD
  5
1
100
AcDbSymbolTable
 70
0
  0
BLOCK_RECORD
  5
225
100
AcDbSymbolTableRecord
100
AcDbBlockTableRecord
  2
*Model_Space
  0
BLOCK_RECORD
  5
226
100
AcDbSymbolTableRecord
100
AcDbBlockTableRecord
  2
*Paper_Space
  0
ENDTAB
  0
TABLE
  2
DIMSTYLE
  5
A
100
AcDbSymbolTable
 70
1
100
AcDbDimStyleTable
 71
0
  0
DIMSTYLE
105
227
100
AcDbSymbolTableRecord
100
AcDbDimStyleTableRecord
  2
STANDARD
 70
0
  3

  4

 40
1.0
 41
0.1875
 42
0.0625
 43
0.38
 44
0.125
 45
0.0
 46
0.0
 47
0.0001
 48
0.0001
140
0.15625
141
0.09
142
0.0
143
25.4
144
1.0
145
0.0
146
1.0
147
0.09
 71
0.0
 72
0.0
 73
1
 74
1
 75
0
 76
0
 77
0
 78
4
 79
1
170
0
171
3
172
0
173
0
174
0
175
0
176
0
177
0
178
0
270
2
179
4
271
4
272
4
273
2
274
2
275
0
280
0
281
0
282
0
283
1
284
4
285
0
286
0
287
3
288
0
340
11
278
46
  0
ENDTAB
  0
ENDSEC
  0
SECTION
  2
BLOCKS
  0
BLOCK
  5
20
100
AcDbEntity
  8
0
100
AcDbBlockBegin
  2
*Model_Space
 70
0
 10
0.0
 20
0.0
 30
0.0
  3
*Model_Space
  1

  0
ENDBLK
  5
21
100
AcDbEntity
  8
0
100
AcDbBlockEnd
  0
BLOCK
  5
1C
100
AcDbEntity
  8
0
100
AcDbBlockBegin
  2
*Paper_Space
 70
0
 10
0.0
 20
0.0
 30
0.0
  3
*Paper_Space
  1

  0
ENDBLK
  5
1D
100
AcDbEntity
  8
0
100
AcDbBlockEnd
  0
ENDSEC
  0
SECTION
  2
ENTITIES
  0
MTEXT
  5
228
100
AcDbEntity
  8
0
100
AcDbMText
 62
7
  6
CONTINUOUS
  7
STANDARD
 71
1
 72
1
 10
15.9560215477
 20
0.9479130325
 30
0.0
 11
1.0
 21
0.0
 31
0.0
 44
0.9
  1
SCALE: 1:1.000
 40
0.3
 41
3.36
  0
LINE
  5
229
100
AcDbEntity
  8
0
100
AcDbLine
 62
7
  6
CONTINUOUS
 10
0.0
 20
0.0
 11
0.0
 21
17.0
  0
LINE
  5
22A
100
AcDbEntity
  8
0
100
AcDbLine
 62
7
  6
CONTINUOUS
 10
0.0
 20
0.0
 11
22.0
 21
0.0
  0
LINE
  5
22B
100
AcDbEntity
  8
0
100
AcDbLine
 62
7
  6
CONTINUOUS
 10
0.0
 20
17.0
 11
22.0
 21
17.0
  0
LINE
  5
22C
100
AcDbEntity
  8
0
100
AcDbLine
 62
7
  6
CONTINUOUS
 10
22.0
 20
0.0
 11
22.0
 21
17.0
  0
LINE
  5
22D
100
AcDbEntity
  8
LAYER_FEATURE
100
AcDbLine
 62
7
  6
CONTINUOUS
 10
6.9423751502
 20
4.9781710779
 11
5.3183594022
 21
4.9781710779
  0
LINE
  5
22E
100
AcDbEntity
  8
LAYER_FEATURE
100
AcDbLine
 62
7
  6
CONTINUOUS
 10
6.9423751502
 20
5.0281710779
 11
5.3183594022
 21
5.0281710779
  0
LINE
  5
22F
100
AcDbEntity
  8
LAYER_CURVE
100
AcDbLine
 62
40
  6
CONTINUOUS
 10
6.9423751502
 20
5.0281710779
 11
5.3183594022
 21
5.0281710779
  0
LINE
  5
230
100
AcDbEntity
  8
LAYER_FEATURE
100
AcDbLine
 62
7
  6
CONTINUOUS
 10
5.3183594022
 20
6.0120687157
 11
6.9423751502
 21
6.0120687157
  0
LINE
  5
231
100
AcDbEntity
  8
LAYER_CURVE
100
AcDbLine
 62
40
  6
CONTINUOUS
 10
5.3183594022
 20
6.0120687157
 11
6.9423751502
 21
6.0120687157
  0
LINE
  5
232
100
AcDbEntity
  8
LAYER_FEATURE
100
AcDbLine
 62
7
  6
CONTINUOUS
 10
5.3183594022
 20
6.0620687157
 11
6.9423751502
 21
6.0620687157
  0
LINE
  5
233
100
AcDbEntity
  8
LAYER_FEATURE
100
AcDbLine
 62
7
  6
CONTINUOUS
 10
4.7169153909
 20
12.4819375451
 11
4.7169153909
 21
12.7181580176
  0
LINE
  5
234
100
AcDbEntity
  8
LAYER_FEATURE
100
AcDbLine
 62
6
  6
CONTINUOUS
 10
4.7669153909
 20
12.4819375451
 11
4.7669153909
 21
12.7181580176
  0
LINE
  5
235
100
AcDbEntity
  8
LAYER_FEATURE
100
AcDbLine
 62
7
  6
CONTINUOUS
 10
4.7169248635
 20
12.4819375451
 11
7.4248193043
 21
12.4819375451
  0
LINE
  5
236
100
AcDbEntity
  8
LAYER_FEATURE
100
AcDbLine
 62
7
  6
CONTINUOUS
 10
4.7169248635
 20
12.7181580176
 11
7.4248193043
 21
12.7181580176
  0
LINE
  5
237
100
AcDbEntity
  8
LAYER_FEATURE
100
AcDbLine
 62
6
  6
CONTINUOUS
 10
7.3748287768
 20
12.4819375451
 11
7.3748287768
 21
12.7181580176
  0
LINE
  5
238
100
AcDbEntity
  8
LAYER_FEATURE
100
AcDbLine
 62
7
  6
CONTINUOUS
 10
7.4248287768
 20
12.4819375451
 11
7.4248287768
 21
12.7181580176
  0
LINE
  5
239
100
AcDbEntity
  8
LAYER_FEATURE
100
AcDbLine
 62
7
  6
CONTINUOUS
 10
15.6784654932
 20
4.9186758855
 11
15.4422450207
 21
4.9186758855
  0
LINE
  5
23A
100
AcDbEntity
  8
LAYER_FEATURE
100
AcDbLine
 62
6
  6
CONTINUOUS
 10
15.4422450207
 20
4.9686758855
 11
15.6784654932
 21
4.9686758855
  0
LINE
  5
23B
100
AcDbEntity
  8
LAYER_FEATURE
100
AcDbLine
 62
7
  6
CONTINUOUS
 10
15.4422450207
 20
6.0025735233
 11
15.4422450207
 21
4.9186758855
  0
LINE
  5
23C
100
AcDbEntity
  8
LAYER_FEATURE
100
AcDbLine
 62
7
  6
CONTINUOUS
 10
15.6784654932
 20
6.0025735233
 11
15.6784654932
 21
4.9186758855
  0
LINE
  5
23D
100
AcDbEntity
  8
LAYER_FEATURE
100
AcDbLine
 62
6
  6
CONTINUOUS
 10
15.4422450207
 20
5.9525735233
 11
15.6784654932
 21
5.9525735233
  0
LINE
  5
23E
100
AcDbEntity
  8
LAYER_FEATURE
100
AcDbLine
 62
7
  6
CONTINUOUS
 10
15.6784654932
 20
6.0025735233
 11
15.4422450207
 21
6.0025735233
  0
LINE
  5
23F
100
AcDbEntity
  8
LAYER_FEATURE
100
AcDbLine
 62
7
  6
CONTINUOUS
 10
14.1768239802
 20
12.5782950308
 11
14.2340050014
 21
12.7633328835
  0
LINE
  5
240
100
AcDbEntity
  8
LAYER_FEATURE
100
AcDbLine
 62
6
  6
CONTINUOUS
 10
14.2245950224
 20
12.5635326623
 11
14.2817760437
 21
12.7485705149
  0
LINE
  5
241
100
AcDbEntity
  8
LAYER_CURVE
100
AcDbLine
 62
40
  6
CONTINUOUS
 10
14.2245947346
 20
12.563531731
 11
14.2248059618
 21
12.5642099777
  0
LINE
  5
242
100
AcDbEntity
  8
LAYER_CURVE
100
AcDbLine
 62
40
  6
CONTINUOUS
 10
14.2734689707
 20
12.6397431958
 11
14.2740724866
 21
12.6403074915
  0
LINE
  5
243
100
AcDbEntity
  8
LAYER_FEATURE
100
AcDbLine
 62
7
  6
CONTINUOUS
 10
14.58089313
 20
12.1592565478
 11
14.6380741513
 21
12.3442944005
  0
LINE
  5
244
100
AcDbEntity
  8
LAYER_FEATURE
100
AcDbLine
 62
7
  6
CONTINUOUS
 10
14.6981864164
 20
12.1373161922
 11
14.6975574293
 21
12.1347705338
  0
LINE
  5
245
100
AcDbEntity
  8
LAYER_FEATURE
100
AcDbLine
 62
7
  6
CONTINUOUS
 10
14.6674502259
 20
12.133933495
 11
14.7246312471
 21
12.3189713476
  0
LINE
  5
246
100
AcDbEntity
  8
LAYER_FEATURE
100
AcDbLine
 62
7
  6
CONTINUOUS
 10
14.6916163685
 20
12.1286012514
 11
14.7487973898
 21
12.3136391041
  0
LINE
  5
247
100
AcDbEntity
  8
LAYER_FEATURE
100
AcDbLine
 62
7
  6
CONTINUOUS
 10
14.755361038
 20
12.3223560243
 11
14.6981800168
 21
12.1373181716
  0
LINE
  5
248
100
AcDbEntity
  8
LAYER_FEATURE
100
AcDbLine
 62
7
  6
CONTINUOUS
 10
14.7788200135
 20
12.1155841104
 11
14.8360010348
 21
12.300621963
  0
LINE
  5
249
100
AcDbEntity
  8
LAYER_CURVE
100
AcDbLine
 62
40
  6
CONTINUOUS
 10
14.3601244324
 20
12.6927516428
 11
14.3610090602
 21
12.6931005825
  0
LINE
  5
24A
100
AcDbEntity
  8
LAYER_FEATURE
100
AcDbLine
 62
7
  6
CONTINUOUS
 10
16.3557478168
 20
12.0814052785
 11
14.8599302576
 21
12.0814052785
  0
LINE
  5
24B
100
AcDbEntity
  8
LAYER_FEATURE
100
AcDbLine
 62
7
  6
CONTINUOUS
 10
16.3404957234
 20
12.1124857769
 11
14.8446781643
 21
12.1124857769
  0
LINE
  5
24C
100
AcDbEntity
  8
LAYER_CURVE
100
AcDbLine
 62
40
  6
CONTINUOUS
 10
16.3404957234
 20
12.1124857769
 11
14.8446781643
 21
12.1124857769
  0
LINE
  5
24D
100
AcDbEntity
  8
LAYER_FEATURE
100
AcDbLine
 62
7
  6
CONTINUOUS
 10
16.3976767447
 20
12.2975236295
 11
14.9018591855
 21
12.2975236295
  0
LINE
  5
24E
100
AcDbEntity
  8
LAYER_FEATURE
100
AcDbLine
 62
7
  6
CONTINUOUS
 10
14.5445481923
 20
12.7240863563
 11
16.0403657514
 21
12.7240863563
  0
LINE
  5
24F
100
AcDbEntity
  8
LAYER_CURVE
100
AcDbLine
 62
40
  6
CONTINUOUS
 10
14.5445481923
 20
12.7240863563
 11
16.0403657514
 21
12.7240863563
  0
LINE
  5
250
100
AcDbEntity
  8
LAYER_FEATURE
100
AcDbLine
 62
7
  6
CONTINUOUS
 10
14.5292960989
 20
12.7551668547
 11
16.0251136581
 21
12.7551668547
  0
LINE
  5
251
100
AcDbEntity
  8
LAYER_CURVE
100
AcDbLine
 62
40
  6
CONTINUOUS
 10
14.4766413013
 20
12.7204475788
 11
14.4789476299
 21
12.7206982343
  0
LINE
  5
252
100
AcDbEntity
  8
LAYER_FEATURE
100
AcDbLine
 62
7
  6
CONTINUOUS
 10
14.6017292135
 20
12.9091242089
 11
16.0975467727
 21
12.9091242089
  0
LINE
  5
253
100
AcDbEntity
  8
LAYER_FEATURE
100
AcDbLine
 62
7
  6
CONTINUOUS
 10
14.5864771202
 20
12.9402047074
 11
16.0822946794
 21
12.9402047074
  0
LINE
  5
254
100
AcDbEntity
  8
LAYER_CURVE
100
AcDbLine
 62
40
  6
CONTINUOUS
 10
16.6607419734
 20
12.2739984377
 11
16.6604491492
 21
12.2730402989
  0
LINE
  5
255
100
AcDbEntity
  8
LAYER_FEATURE
100
AcDbLine
 62
6
  6
CONTINUOUS
 10
16.6604488933
 20
12.2730394709
 11
16.7176299146
 21
12.4580773236
  0
LINE
  5
256
100
AcDbEntity
  8
LAYER_FEATURE
100
AcDbLine
 62
7
  6
CONTINUOUS
 10
16.7082199355
 20
12.2582771023
 11
16.7654009568
 21
12.443314955
  0
ARC
  5
257
100
AcDbEntity
  8
LAYER_FEATURE
100
AcDbCircle
 62
7
  6
CONTINUOUS
 10
6.9423751502
 20
5.5201198968
 40
0.5419488189
100
AcDbArc
 50
270.0
 51
90.0
  0
ARC
  5
258
100
AcDbEntity
  8
LAYER_FEATURE
100
AcDbCircle
 62
7
  6
CONTINUOUS
 10
5.3183594022
 20
5.5201198968
 40
0.5419488189
100
AcDbArc
 50
90.0
 51
270.0
  0
ARC
  5
259
100
AcDbEntity
  8
LAYER_FEATURE
100
AcDbCircle
 62
7
  6
CONTINUOUS
 10
5.3183594022
 20
5.5201198968
 40
0.4919488189
100
AcDbArc
 50
248.4130303811
 51
251.3161635472
  0
ARC
  5
25A
100
AcDbEntity
  8
LAYER_FEATURE
100
AcDbCircle
 62
7
  6
CONTINUOUS
 10
5.3183594022
 20
5.5201198968
 40
0.4919488189
100
AcDbArc
 50
90.0
 51
237.8931090252
  0
ARC
  5
25B
100
AcDbEntity
  8
LAYER_FEATURE
100
AcDbCircle
 62
7
  6
CONTINUOUS
 10
5.3183594022
 20
5.5201198968
 40
0.4919488189
100
AcDbArc
 50
261.8369445106
 51
270.0
  0
ARC
  5
25C
100
AcDbEntity
  8
LAYER_FEATURE
100
AcDbCircle
 62
7
  6
CONTINUOUS
 10
6.9423751502
 20
5.5201198968
 40
0.4919488189
100
AcDbArc
 50
270.0
 51
90.0
  0
ARC
  5
25D
100
AcDbEntity
  8
LAYER_CURVE
100
AcDbCircle
 62
40
  6
CONTINUOUS
 10
5.3183594022
 20
5.5201198968
 40
0.4919488189
100
AcDbArc
 50
90.0
 51
270.0
  0
ARC
  5
25E
100
AcDbEntity
  8
LAYER_CURVE
100
AcDbCircle
 62
40
  6
CONTINUOUS
 10
6.9423751502
 20
5.5201198968
 40
0.4919488189
100
AcDbArc
 50
270.0
 51
90.0
  0
ARC
  5
25F
100
AcDbEntity
  8
LAYER_FEATURE
100
AcDbCircle
 62
7
  6
CONTINUOUS
 10
5.3183594022
 20
5.5201198968
 40
0.4919488189
100
AcDbArc
 50
237.8931090252
 51
248.4130303811
  0
ARC
  5
260
100
AcDbEntity
  8
LAYER_FEATURE
100
AcDbCircle
 62
7
  6
CONTINUOUS
 10
5.3183594022
 20
5.5201198968
 40
0.4919488189
100
AcDbArc
 50
251.3161635472
 51
261.8369445106
  0
ARC
  5
261
100
AcDbEntity
  8
LAYER_FEATURE
100
AcDbCircle
 62
7
  6
CONTINUOUS
 10
5.2061521089
 20
5.0499756592
 40
0.0382
100
AcDbArc
 50
357.5620902454
 51
155.5910614424
  0
ARC
  5
262
100
AcDbEntity
  8
LAYER_FEATURE
100
AcDbCircle
 62
7
  6
CONTINUOUS
 10
5.1000755861
 20
5.0888679328
 40
0.0382
100
AcDbArc
 50
344.1386660893
 51
142.1676372864
  0
ARC
  5
263
100
AcDbEntity
  8
LAYER_FEATURE
100
AcDbCircle
 62
7
  6
CONTINUOUS
 10
5.2724920106
 20
5.0471512214
 40
0.0282
100
AcDbArc
 50
177.5620902454
 51
201.7754984156
  0
ARC
  5
264
100
AcDbEntity
  8
LAYER_FEATURE
100
AcDbCircle
 62
7
  6
CONTINUOUS
 10
5.1456869939
 20
5.0774152267
 40
0.0282
100
AcDbArc
 50
311.3776532723
 51
335.5910614424
  0
ARC
  5
265
100
AcDbEntity
  8
LAYER_FEATURE
100
AcDbCircle
 62
7
  6
CONTINUOUS
 10
5.1639474707
 20
5.0707201405
 40
0.0282
100
AcDbArc
 50
164.1386660893
 51
188.3520742595
  0
ARC
  5
266
100
AcDbEntity
  8
LAYER_FEATURE
100
AcDbCircle
 62
7
  6
CONTINUOUS
 10
5.0476322888
 20
5.1295945895
 40
0.0282
100
AcDbArc
 50
297.9542291162
 51
322.1676372864
  0
ARC
  5
267
100
AcDbEntity
  8
LAYER_FEATURE
100
AcDbCircle
 62
7
  6
CONTINUOUS
 10
5.2572622399
 20
5.0410673011
 40
0.0118
100
AcDbArc
 50
201.7754984156
 51
222.1024929814
  0
ARC
  5
268
100
AcDbEntity
  8
LAYER_FEATURE
100
AcDbCircle
 62
7
  6
CONTINUOUS
 10
5.1565277096
 20
5.0651091761
 40
0.0118
100
AcDbArc
 50
291.0481071215
 51
311.3776532723
  0
ARC
  5
269
100
AcDbEntity
  8
LAYER_FEATURE
100
AcDbCircle
 62
7
  6
CONTINUOUS
 10
5.1477214061
 20
5.0683379505
 40
0.0118
100
AcDbArc
 50
188.3520742595
 51
208.650412957
  0
ARC
  5
26A
100
AcDbEntity
  8
LAYER_FEATURE
100
AcDbCircle
 62
7
  6
CONTINUOUS
 10
5.0553200524
 20
5.115108103
 40
0.0118
100
AcDbArc
 50
277.6463005173
 51
297.9542291162
  0
ARC
  5
26B
100
AcDbEntity
  8
LAYER_FEATURE
100
AcDbCircle
 62
7
  6
CONTINUOUS
 10
14.918244768
 20
13.1381879788
 40
0.8417797631
100
AcDbArc
 50
256.7020424579
 51
258.3872173185
  0
ARC
  5
26C
100
AcDbEntity
  8
LAYER_FEATURE
100
AcDbCircle
 62
7
  6
CONTINUOUS
 10
14.8609394416
 20
12.9530018593
 40
0.8416095411
100
AcDbArc
 50
256.7082970588
 51
258.3934719559
  0
ARC
  5
26D
100
AcDbEntity
  8
LAYER_FEATURE
100
AcDbCircle
 62
7
  6
CONTINUOUS
 10
14.8450343145
 20
12.8214884308
 40
0.7090027434
100
AcDbArc
 50
264.6412564597
 51
269.9712188613
  0
ARC
  5
26E
100
AcDbEntity
  8
LAYER_FEATURE
100
AcDbCircle
 62
7
  6
CONTINUOUS
 10
14.9022129747
 20
13.0064191301
 40
0.7088955888
100
AcDbArc
 50
264.6405972206
 51
269.9714053417
  0
ARC
  5
26F
100
AcDbEntity
  8
LAYER_FEATURE
100
AcDbCircle
 62
7
  6
CONTINUOUS
 10
16.5061705638
 20
12.3207152698
 40
0.1614759176
100
AcDbArc
 50
342.8275644243
 51
344.1502231112
  0
SPLINE
  5
270
100
AcDbEntity
  8
LAYER_FEATURE
100
AcDbSpline
 62
7
  6
CONTINUOUS
 70
0
 71
3
 72
9
 73
5
 74
0
 42
0.0000001
 43
0.0000001
 44
0.0000000001
 40
0.0
 40
0.0
 40
0.0
 40
0.0
 40
0.2661160338
 40
1.0
 40
1.0
 40
1.0
 40
1.0
 10
14.7246227574
 20
12.3189787952
 30
0.0
 10
14.7243804532
 20
12.31916499
 30
0.0
 10
14.7234926073
 20
12.3198926127
 30
0.0
 10
14.7226952772
 20
12.3207386078
 30
0.0
 10
14.7222082016
 20
12.3214263093
 30
0.0
  0
SPLINE
  5
271
100
AcDbEntity
  8
LAYER_FEATURE
100
AcDbSpline
 62
7
  6
CONTINUOUS
 70
0
 71
3
 72
9
 73
5
 74
0
 42
0.0000001
 43
0.0000001
 44
0.0000000001
 40
0.0
 40
0.0
 40
0.0
 40
0.0
 40
0.2743074317
 40
1.0
 40
1.0
 40
1.0
 40
1.0
 10
14.7222082016
 20
12.3214263093
 30
0.0
 10
14.7217887621
 20
12.3220185155
 30
0.0
 10
14.7203724917
 20
12.3242473959
 30
0.0
 10
14.7194546228
 20
12.3268482972
 30
0.0
 10
14.7193210816
 20
12.3287635138
 30
0.0
  0
SPLINE
  5
272
100
AcDbEntity
  8
LAYER_FEATURE
100
AcDbSpline
 62
7
  6
CONTINUOUS
 70
0
 71
3
 72
15
 73
11
 74
0
 42
0.0000001
 43
0.0000001
 44
0.0000000001
 40
0.0
 40
0.0
 40
0.0
 40
0.0
 40
0.214005499
 40
0.2816635351
 40
0.3532667408
 40
0.5029224474
 40
0.6516663735
 40
0.7881811388
 40
0.9044677815
 40
1.0
 40
1.0
 40
1.0
 40
1.0
 10
14.7193210816
 20
12.3287635138
 30
0.0
 10
14.7188896927
 20
12.3349503949
 30
0.0
 10
14.7132324177
 20
12.3423838188
 30
0.0
 10
14.7051699582
 20
12.3485151128
 30
0.0
 10
14.6979454399
 20
12.3528292633
 30
0.0
 10
14.6879264535
 20
12.3568267861
 30
0.0
 10
14.6754687183
 20
12.3592221635
 30
0.0
 10
14.6637306986
 20
12.3589856438
 30
0.0
 10
14.6538854827
 20
12.3561691803
 30
0.0
 10
14.6488801542
 20
12.3521284633
 30
0.0
 10
14.6473551876
 20
12.34981778
 30
0.0
  0
SPLINE
  5
273
100
AcDbEntity
  8
LAYER_FEATURE
100
AcDbSpline
 62
7
  6
CONTINUOUS
 70
0
 71
3
 72
9
 73
5
 74
0
 42
0.0000001
 43
0.0000001
 44
0.0000000001
 40
0.0
 40
0.0
 40
0.0
 40
0.0
 40
0.231257407
 40
1.0
 40
1.0
 40
1.0
 40
1.0
 10
14.6473551876
 20
12.34981778
 30
0.0
 10
14.6470274662
 20
12.3493212051
 30
0.0
 10
14.6454177075
 20
12.3472991071
 30
0.0
 10
14.6431527181
 20
12.3458735791
 30
0.0
 10
14.6413387749
 20
12.3450853836
 30
0.0
  0
SPLINE
  5
274
100
AcDbEntity
  8
LAYER_FEATURE
100
AcDbSpline
 62
7
  6
CONTINUOUS
 70
0
 71
3
 72
9
 73
5
 74
0
 42
0.0000001
 43
0.0000001
 44
0.0000000001
 40
0.0
 40
0.0
 40
0.0
 40
0.0
 40
0.2329971901
 40
1.0
 40
1.0
 40
1.0
 40
1.0
 10
14.6413387749
 20
12.3450853836
 30
0.0
 10
14.6410994705
 20
12.344981401
 30
0.0
 10
14.6400507117
 20
12.3445851478
 30
0.0
 10
14.6389368024
 20
12.3443764693
 30
0.0
 10
14.6380816946
 20
12.3442956344
 30
0.0
  0
SPLINE
  5
275
100
AcDbEntity
  8
LAYER_FEATURE
100
AcDbSpline
 62
7
  6
CONTINUOUS
 70
0
 71
3
 72
13
 73
9
 74
0
 42
0.0000001
 43
0.0000001
 44
0.0000000001
 40
0.0
 40
0.0
 40
0.0
 40
0.0
 40
0.2885517249
 40
0.4266660477
 40
0.5582978117
 40
0.6821031208
 40
0.797188136
 40
1.0
 40
1.0
 40
1.0
 40
1.0
 10
14.6380816946
 20
12.3442956344
 30
0.0
 10
14.5942288583
 20
12.3596709915
 30
0.0
 10
14.5310053464
 20
12.387699592
 30
0.0
 10
14.4543673229
 20
12.4349095726
 30
0.0
 10
14.4037866818
 20
12.4732734714
 30
0.0
 10
14.360294862
 20
12.5143789052
 30
0.0
 10
14.314958798
 20
12.5692269936
 30
0.0
 10
14.2905239052
 20
12.6157162775
 30
0.0
 10
14.2818364165
 20
12.6472017921
 30
0.0
  0
SPLINE
  5
276
100
AcDbEntity
  8
LAYER_FEATURE
100
AcDbSpline
 62
7
  6
CONTINUOUS
 70
0
 71
3
 72
9
 73
5
 74
0
 42
0.0000001
 43
0.0000001
 44
0.0000000001
 40
0.0
 40
0.0
 40
0.0
 40
0.0
 40
0.2610755758
 40
1.0
 40
1.0
 40
1.0
 40
1.0
 10
14.8360000857
 20
12.3006225523
 30
0.0
 10
14.8357091444
 20
12.3007815513
 30
0.0
 10
14.8346118645
 20
12.3014206336
 30
0.0
 10
14.8335827363
 20
12.3021822661
 30
0.0
 10
14.8328933999
 20
12.3028189809
 30
0.0
  0
SPLINE
  5
277
100
AcDbEntity
  8
LAYER_FEATURE
100
AcDbSpline
 62
7
  6
CONTINUOUS
 70
0
 71
3
 72
9
 73
5
 74
0
 42
0.0000001
 43
0.0000001
 44
0.0000000001
 40
0.0
 40
0.0
 40
0.0
 40
0.0
 40
0.2725574739
 40
1.0
 40
1.0
 40
1.0
 40
1.0
 10
14.8328933999
 20
12.3028189809
 30
0.0
 10
14.8322883586
 20
12.3033778355
 30
0.0
 10
14.8301559612
 20
12.3055140844
 30
0.0
 10
14.8283708192
 20
12.3080463099
 30
0.0
 10
14.8275064622
 20
12.3100675191
 30
0.0
  0
SPLINE
  5
278
100
AcDbEntity
  8
LAYER_FEATURE
100
AcDbSpline
 62
7
  6
CONTINUOUS
 70
0
 71
3
 72
16
 73
12
 74
0
 42
0.0000001
 43
0.0000001
 44
0.0000000001
 40
0.0
 40
0.0
 40
0.0
 40
0.0
 40
0.1115874897
 40
0.2435787983
 40
0.3895071857
 40
0.5391107902
 40
0.6812594131
 40
0.8066472658
 40
0.9109158504
 40
0.9566411403
 40
1.0
 40
1.0
 40
1.0
 40
1.0
 10
14.8275064622
 20
12.3100675191
 30
0.0
 10
14.8262585158
 20
12.3129857123
 30
0.0
 10
14.8220939695
 20
12.3187319192
 30
0.0
 10
14.8133169062
 20
12.32562721
 30
0.0
 10
14.8023244511
 20
12.331018221
 30
0.0
 10
14.7902506708
 20
12.3343300473
 30
0.0
 10
14.7783306295
 20
12.3352208428
 30
0.0
 10
14.7677776196
 20
12.3336129469
 30
0.0
 10
14.7605671962
 20
12.3299862059
 30
0.0
 10
14.7568464172
 20
12.3258539132
 30
0.0
 10
14.7557269859
 20
12.3235337161
 30
0.0
 10
14.755361875
 20
12.3223557656
 30
0.0
  0
SPLINE
  5
279
100
AcDbEntity
  8
LAYER_FEATURE
100
AcDbSpline
 62
7
  6
CONTINUOUS
 70
0
 71
3
 72
9
 73
5
 74
0
 42
0.0000001
 43
0.0000001
 44
0.0000000001
 40
0.0
 40
0.0
 40
0.0
 40
0.0
 40
0.2315523979
 40
1.0
 40
1.0
 40
1.0
 40
1.0
 10
14.7514199088
 20
12.3149807652
 30
0.0
 10
14.7512450566
 20
12.3148339898
 30
0.0
 10
14.7504493609
 20
12.3142483135
 30
0.0
 10
14.7495236206
 20
12.3138552711
 30
0.0
 10
14.7487974822
 20
12.3136391405
 30
0.0
  0
SPLINE
  5
27A
100
AcDbEntity
  8
LAYER_FEATURE
100
AcDbSpline
 62
7
  6
CONTINUOUS
 70
0
 71
3
 72
19
 73
15
 74
0
 42
0.0000001
 43
0.0000001
 44
0.0000000001
 40
0.0
 40
0.0
 40
0.0
 40
0.0
 40
0.1416544684
 40
0.2892411619
 40
0.4362816044
 40
0.5763569569
 40
0.6420954874
 40
0.7042069851
 40
0.7623529459
 40
0.8164135616
 40
0.8665431475
 40
0.9132265516
 40
0.9573150702
 40
1.0
 40
1.0
 40
1.0
 40
1.0
 10
14.8599302576
 20
12.0814052785
 30
0.0
 10
14.815457451
 20
12.0814052785
 30
0.0
 10
14.7245391638
 20
12.0895012013
 30
0.0
 10
14.5910254142
 20
12.1220842837
 30
0.0
 10
14.4640677971
 20
12.1734481297
 30
0.0
 10
14.3684004136
 20
12.2304056648
 30
0.0
 10
14.3025022363
 20
12.2828622856
 30
0.0
 10
14.2605555908
 20
12.3236430552
 30
0.0
 10
14.2257319606
 20
12.3660295614
 30
0.0
 10
14.1986080703
 20
12.4093704525
 30
0.0
 10
14.1796615451
 20
12.4530060312
 30
0.0
 10
14.1692893509
 20
12.4962788618
 30
0.0
 10
14.1677939503
 20
12.5384480093
 30
0.0
 10
14.1728683448
 20
12.5654910824
 30
0.0
 10
14.1768249995
 20
12.5782947158
 30
0.0
  0
SPLINE
  5
27B
100
AcDbEntity
  8
LAYER_FEATURE
100
AcDbSpline
 62
7
  6
CONTINUOUS
 70
0
 71
3
 72
19
 73
15
 74
0
 42
0.0000001
 43
0.0000001
 44
0.0000000001
 40
0.0
 40
0.0
 40
0.0
 40
0.0
 40
0.1413360804
 40
0.2885940713
 40
0.4353943732
 40
0.5754039535
 40
0.6411901007
 40
0.7034046677
 40
0.7617028395
 40
0.8159503596
 40
0.866277164
 40
0.9131328682
 40
0.9573250466
 40
1.0
 40
1.0
 40
1.0
 40
1.0
 10
16.0403657514
 20
12.7240863563
 30
0.0
 10
16.0804701842
 20
12.7240863563
 30
0.0
 10
16.1624579224
 20
12.7168325503
 30
0.0
 10
16.2829198562
 20
12.6876157613
 30
0.0
 10
16.3975995183
 20
12.6415290364
 30
0.0
 10
16.4841736797
 20
12.590398742
 30
0.0
 10
16.5439881716
 20
12.5432757539
 30
0.0
 10
16.5821916571
 20
12.5065998515
 30
0.0
 10
16.6140471863
 20
12.4684482813
 30
0.0
 10
16.6390348752
 20
12.4294011729
 30
0.0
 10
16.6567234579
 20
12.3900466338
 30
0.0
 10
16.666754414
 20
12.3509689642
 30
0.0
 10
16.6688526928
 20
12.3128228306
 30
0.0
 10
16.6648145409
 20
12.2882623362
 30
0.0
 10
16.6615073416
 20
12.2766135984
 30
0.0
  0
SPLINE
  5
27C
100
AcDbEntity
  8
LAYER_FEATURE
100
AcDbSpline
 62
7
  6
CONTINUOUS
 70
0
 71
3
 72
19
 73
15
 74
0
 42
0.0000001
 43
0.0000001
 44
0.0000000001
 40
0.0
 40
0.0
 40
0.0
 40
0.0
 40
0.1416544684
 40
0.2892411619
 40
0.4362816044
 40
0.5763569569
 40
0.6420954874
 40
0.7042069851
 40
0.7623529459
 40
0.8164135616
 40
0.8665431475
 40
0.9132265516
 40
0.9573150702
 40
1.0
 40
1.0
 40
1.0
 40
1.0
 10
16.0822946794
 20
12.9402047074
 30
0.0
 10
16.1267674859
 20
12.9402047074
 30
0.0
 10
16.2176857731
 20
12.9321087845
 30
0.0
 10
16.3511995228
 20
12.8995257021
 30
0.0
 10
16.4781571398
 20
12.8481618561
 30
0.0
 10
16.5738245234
 20
12.791204321
 30
0.0
 10
16.6397227007
 20
12.7387477002
 30
0.0
 10
16.6816693462
 20
12.6979669306
 30
0.0
 10
16.7164929763
 20
12.6555804244
 30
0.0
 10
16.7436168667
 20
12.6122395333
 30
0.0
 10
16.7625633918
 20
12.5686039546
 30
0.0
 10
16.7729355861
 20
12.5253311241
 30
0.0
 10
16.7744309866
 20
12.4831619765
 30
0.0
 10
16.7693565922
 20
12.4561189034
 30
0.0
 10
16.7653999374
 20
12.4433152701
 30
0.0
  0
LINE
  5
27D
100
AcDbEntity
  8
LAYER_FEATURE
100
AcDbLine
 62
7
  6
CONTINUOUS
 10
14.7541790119
 20
12.3184105473
 11
14.7531239908
 21
12.3167379387
  0
LINE
  5
27E
100
AcDbEntity
  8
LAYER_FEATURE
100
AcDbLine
 62
7
  6
CONTINUOUS
 10
14.7531239908
 20
12.3167379387
 11
14.7514199088
 21
12.3149807652
  0
SPLINE
  5
27F
100
AcDbEntity
  8
LAYER_FEATURE
100
AcDbSpline
 62
7
  6
CONTINUOUS
 70
0
 71
3
 72
15
 73
11
 74
0
 42
0.0000001
 43
0.0000001
 44
0.0000000001
 40
0.0
 40
0.0
 40
0.0
 40
0.0
 40
0.0996708622
 40
0.2028863382
 40
0.3126137887
 40
0.4309118745
 40
0.5588839892
 40
0.6967632525
 40
0.8441516657
 40
1.0
 40
1.0
 40
1.0
 40
1.0
 10
14.2340060208
 20
12.7633325684
 30
0.0
 10
14.2381286331
 20
12.776673236
 30
0.0
 10
14.2498133783
 20
12.8029207396
 30
0.0
 10
14.2764671903
 20
12.8380888645
 30
0.0
 10
14.3116882521
 20
12.8687452679
 30
0.0
 10
14.3547081047
 20
12.8944134716
 30
0.0
 10
14.404724418
 20
12.9147483011
 30
0.0
 10
14.4608601373
 20
12.9294646651
 30
0.0
 10
14.522129917
 20
12.9383292695
 30
0.0
 10
14.5646439342
 20
12.9402047074
 30
0.0
 10
14.5864771202
 20
12.9402047074
 30
0.0
  0
SPLINE
  5
280
100
AcDbEntity
  8
LAYER_FEATURE
100
AcDbSpline
 62
7
  6
CONTINUOUS
 70
0
 71
3
 72
14
 73
10
 74
0
 42
0.0000001
 43
0.0000001
 44
0.0000000001
 40
0.0
 40
0.0
 40
0.0
 40
0.0
 40
0.0997092847
 40
0.2029645589
 40
0.3127340716
 40
0.4310767736
 40
0.5590960384
 40
0.6970331566
 40
1.0
 40
1.0
 40
1.0
 40
1.0
 10
14.2245950849
 20
12.563532643
 30
0.0
 10
14.2283369316
 20
12.5756426747
 30
0.0
 10
14.2389448118
 20
12.5994683147
 30
0.0
 10
14.2631398831
 20
12.6313914604
 30
0.0
 10
14.2951119497
 20
12.6592193805
 30
0.0
 10
14.3341611571
 20
12.6825190284
 30
0.0
 10
14.3795675489
 20
12.7009815649
 30
0.0
 10
14.4496689904
 20
12.7193487897
 30
0.0
 10
14.5060353422
 20
12.7240863563
 30
0.0
 10
14.5445481923
 20
12.7240863563
 30
0.0
  0
SPLINE
  5
281
100
AcDbEntity
  8
LAYER_FEATURE
100
AcDbSpline
 62
7
  6
CONTINUOUS
 70
0
 71
3
 72
15
 73
11
 74
0
 42
0.0000001
 43
0.0000001
 44
0.0000000001
 40
0.0
 40
0.0
 40
0.0
 40
0.0
 40
0.0996708622
 40
0.2028863382
 40
0.3126137887
 40
0.4309118745
 40
0.5588839892
 40
0.6967632525
 40
0.8441516657
 40
1.0
 40
1.0
 40
1.0
 40
1.0
 10
16.7082189161
 20
12.2582774174
 30
0.0
 10
16.7040963039
 20
12.2449367498
 30
0.0
 10
16.6924115586
 20
12.2186892463
 30
0.0
 10
16.6657577466
 20
12.1835211213
 30
0.0
 10
16.6305366849
 20
12.1528647179
 30
0.0
 10
16.5875168322
 20
12.1271965142
 30
0.0
 10
16.537500519
 20
12.1068616847
 30
0.0
 10
16.4813647997
 20
12.0921453207
 30
0.0
 10
16.4200950199
 20
12.0832807163
 30
0.0
 10
16.3775810027
 20
12.0814052785
 30
0.0
 10
16.3557478168
 20
12.0814052785
 30
0.0
  0
SPLINE
  5
282
100
AcDbEntity
  8
LAYER_FEATURE
100
AcDbSpline
 62
7
  6
CONTINUOUS
 70
0
 71
3
 72
10
 73
6
 74
0
 42
0.0000001
 43
0.0000001
 44
0.0000000001
 40
0.0
 40
0.0
 40
0.0
 40
0.0
 40
0.4513903578
 40
0.7146633146
 40
1.0
 40
1.0
 40
1.0
 40
1.0
 10
16.6601229169
 20
12.3741895698
 30
0.0
 10
16.6281757372
 20
12.3472464101
 30
0.0
 10
16.5657887117
 20
12.3185947518
 30
0.0
 10
16.4750360795
 20
12.300526562
 30
0.0
 10
16.4240945423
 20
12.2975236295
 30
0.0
 10
16.3976767447
 20
12.2975236295
 30
0.0
  0
SPLINE
  5
283
100
AcDbEntity
  8
LAYER_FEATURE
100
AcDbSpline
 62
7
  6
CONTINUOUS
 70
0
 71
3
 72
19
 73
15
 74
0
 42
0.0000001
 43
0.0000001
 44
0.0000000001
 40
0.0
 40
0.0
 40
0.0
 40
0.0
 40
0.1416544684
 40
0.2892411619
 40
0.4362816044
 40
0.5763569569
 40
0.6420954874
 40
0.7042069851
 40
0.7623529459
 40
0.8164135616
 40
0.8665431475
 40
0.9132265516
 40
0.9573150702
 40
1.0
 40
1.0
 40
1.0
 40
1.0
 10
16.0251136581
 20
12.7551668547
 30
0.0
 10
16.0695864646
 20
12.7551668547
 30
0.0
 10
16.1605047519
 20
12.7470709318
 30
0.0
 10
16.2940185015
 20
12.7144878494
 30
0.0
 10
16.4209761186
 20
12.6631240034
 30
0.0
 10
16.5166435021
 20
12.6061664683
 30
0.0
 10
16.5825416794
 20
12.5537098476
 30
0.0
 10
16.6244883249
 20
12.5129290779
 30
0.0
 10
16.6593119551
 20
12.4705425718
 30
0.0
 10
16.6864358454
 20
12.4272016807
 30
0.0
 10
16.7053823706
 20
12.3835661019
 30
0.0
 10
16.7157545648
 20
12.3402932714
 30
0.0
 10
16.7172499653
 20
12.2981241238
 30
0.0
 10
16.7121755709
 20
12.2710810507
 30
0.0
 10
16.7082189161
 20
12.2582774174
 30
0.0
  0
SPLINE
  5
284
100
AcDbEntity
  8
LAYER_FEATURE
100
AcDbSpline
 62
7
  6
CONTINUOUS
 70
0
 71
3
 72
9
 73
5
 74
0
 42
0.0000001
 43
0.0000001
 44
0.0000000001
 40
0.0
 40
0.0
 40
0.0
 40
0.0
 40
0.2610750508
 40
1.0
 40
1.0
 40
1.0
 40
1.0
 10
14.778819539
 20
12.115584405
 30
0.0
 10
14.7785285557
 20
12.115743427
 30
0.0
 10
14.777431112
 20
12.1163825964
 30
0.0
 10
14.7764018164
 20
12.1171443197
 30
0.0
 10
14.7757123786
 20
12.1177811282
 30
0.0
  0
SPLINE
  5
285
100
AcDbEntity
  8
LAYER_FEATURE
100
AcDbSpline
 62
7
  6
CONTINUOUS
 70
0
 71
3
 72
16
 73
12
 74
0
 42
0.0000001
 43
0.0000001
 44
0.0000000001
 40
0.0
 40
0.0
 40
0.0
 40
0.0
 40
0.1564066164
 40
0.3078647284
 40
0.4511244183
 40
0.5835781534
 40
0.7036686844
 40
0.811340566
 40
0.9085743417
 40
0.9546898783
 40
1.0
 40
1.0
 40
1.0
 40
1.0
 10
14.5808969034
 20
12.1592571651
 30
0.0
 10
14.5520678001
 20
12.169365012
 30
0.0
 10
14.4963294647
 20
12.1923023553
 30
0.0
 10
14.4189139543
 20
12.2347778475
 30
0.0
 10
14.3509674268
 20
12.2836017267
 30
0.0
 10
14.2948052746
 20
12.3371489463
 30
0.0
 10
14.2523363798
 20
12.393739725
 30
0.0
 10
14.2250819001
 20
12.4516543212
 30
0.0
 10
14.2160991104
 20
12.500612168
 30
0.0
 10
14.2181193093
 20
12.5375437952
 30
0.0
 10
14.2219823987
 20
12.5550770016
 30
0.0
 10
14.2245950849
 20
12.563532643
 30
0.0
  0
SPLINE
  5
286
100
AcDbEntity
  8
LAYER_FEATURE
100
AcDbSpline
 62
7
  6
CONTINUOUS
 70
0
 71
3
 72
9
 73
5
 74
0
 42
0.0000001
 43
0.0000001
 44
0.0000000001
 40
0.0
 40
0.0
 40
0.0
 40
0.0
 40
0.2421740741
 40
1.0
 40
1.0
 40
1.0
 40
1.0
 10
14.6975576139
 20
12.1347704767
 30
0.0
 10
14.6974168425
 20
12.1343149808
 30
0.0
 10
14.6966918882
 20
12.1324779764
 30
0.0
 10
14.6953815536
 20
12.1309020953
 30
0.0
 10
14.6942388876
 20
12.1299429125
 30
0.0
  0
SPLINE
  5
287
100
AcDbEntity
  8
LAYER_FEATURE
100
AcDbSpline
 62
7
  6
CONTINUOUS
 70
0
 71
3
 72
9
 73
5
 74
0
 42
0.0000001
 43
0.0000001
 44
0.0000000001
 40
0.0
 40
0.0
 40
0.0
 40
0.0
 40
0.2329928404
 40
1.0
 40
1.0
 40
1.0
 40
1.0
 10
14.5841577536
 20
12.160047531
 30
0.0
 10
14.5839181815
 20
12.159943432
 30
0.0
 10
14.5828681917
 20
12.1595468116
 30
0.0
 10
14.5817529888
 20
12.1593380923
 30
0.0
 10
14.5808969034
 20
12.1592571651
 30
0.0
  0
SPLINE
  5
288
100
AcDbEntity
  8
LAYER_FEATURE
100
AcDbSpline
 62
7
  6
CONTINUOUS
 70
0
 71
3
 72
9
 73
5
 74
0
 42
0.0000001
 43
0.0000001
 44
0.0000000001
 40
0.0
 40
0.0
 40
0.0
 40
0.0
 40
0.231257407
 40
1.0
 40
1.0
 40
1.0
 40
1.0
 10
14.5901741663
 20
12.1647799274
 30
0.0
 10
14.5898464449
 20
12.1642833524
 30
0.0
 10
14.5882366863
 20
12.1622612545
 30
0.0
 10
14.5859716968
 20
12.1608357265
 30
0.0
 10
14.5841577536
 20
12.160047531
 30
0.0
  0
SPLINE
  5
289
100
AcDbEntity
  8
LAYER_FEATURE
100
AcDbSpline
 62
7
  6
CONTINUOUS
 70
0
 71
3
 72
15
 73
11
 74
0
 42
0.0000001
 43
0.0000001
 44
0.0000000001
 40
0.0
 40
0.0
 40
0.0
 40
0.0
 40
0.214005499
 40
0.2816635351
 40
0.3532667408
 40
0.5029224474
 40
0.6516663735
 40
0.7881811388
 40
0.9044677815
 40
1.0
 40
1.0
 40
1.0
 40
1.0
 10
14.6621400603
 20
12.1437256612
 30
0.0
 10
14.6617086714
 20
12.1499125422
 30
0.0
 10
14.6560513964
 20
12.1573459661
 30
0.0
 10
14.6479889369
 20
12.1634772601
 30
0.0
 10
14.6407644186
 20
12.1677914106
 30
0.0
 10
14.6307454322
 20
12.1717889334
 30
0.0
 10
14.618287697
 20
12.1741843108
 30
0.0
 10
14.6065496774
 20
12.1739477911
 30
0.0
 10
14.5967044614
 20
12.1711313276
 30
0.0
 10
14.591699133
 20
12.1670906106
 30
0.0
 10
14.5901741663
 20
12.1647799274
 30
0.0
  0
SPLINE
  5
28A
100
AcDbEntity
  8
LAYER_FEATURE
100
AcDbSpline
 62
7
  6
CONTINUOUS
 70
0
 71
3
 72
9
 73
5
 74
0
 42
0.0000001
 43
0.0000001
 44
0.0000000001
 40
0.0
 40
0.0
 40
0.0
 40
0.0
 40
0.2743074317
 40
1.0
 40
1.0
 40
1.0
 40
1.0
 10
14.6650271803
 20
12.1363884566
 30
0.0
 10
14.6646077408
 20
12.1369806628
 30
0.0
 10
14.6631914705
 20
12.1392095432
 30
0.0
 10
14.6622736015
 20
12.1418104446
 30
0.0
 10
14.6621400603
 20
12.1437256612
 30
0.0
  0
SPLINE
  5
28B
100
AcDbEntity
  8
LAYER_FEATURE
100
AcDbSpline
 62
7
  6
CONTINUOUS
 70
0
 71
3
 72
15
 73
11
 74
0
 42
0.0000001
 43
0.0000001
 44
0.0000000001
 40
0.0
 40
0.0
 40
0.0
 40
0.0
 40
0.0996708622
 40
0.2028863382
 40
0.3126137887
 40
0.4309118745
 40
0.5588839892
 40
0.6967632525
 40
0.8441516657
 40
1.0
 40
1.0
 40
1.0
 40
1.0
 10
14.1768249995
 20
12.5782947158
 30
0.0
 10
14.1809476118
 20
12.5916353833
 30
0.0
 10
14.192632357
 20
12.6178828869
 30
0.0
 10
14.2192861691
 20
12.6530510119
 30
0.0
 10
14.2545072308
 20
12.6837074152
 30
0.0
 10
14.2975270835
 20
12.7093756189
 30
0.0
 10
14.3475433967
 20
12.7297104485
 30
0.0
 10
14.403679116
 20
12.7444268124
 30
0.0
 10
14.4649488957
 20
12.7532914168
 30
0.0
 10
14.5074629129
 20
12.7551668547
 30
0.0
 10
14.5292960989
 20
12.7551668547
 30
0.0
  0
SPLINE
  5
28C
100
AcDbEntity
  8
LAYER_FEATURE
100
AcDbSpline
 62
7
  6
CONTINUOUS
 70
0
 71
3
 72
9
 73
5
 74
0
 42
0.0000001
 43
0.0000001
 44
0.0000000001
 40
0.0
 40
0.0
 40
0.0
 40
0.0
 40
0.2661085712
 40
1.0
 40
1.0
 40
1.0
 40
1.0
 10
14.6674459954
 20
12.1339372062
 30
0.0
 10
14.6672033001
 20
12.1341237014
 30
0.0
 10
14.6663139522
 20
12.1348524501
 30
0.0
 10
14.6655150605
 20
12.1356996192
 30
0.0
 10
14.6650271803
 20
12.1363884566
 30
0.0
  0
SPLINE
  5
28D
100
AcDbEntity
  8
LAYER_FEATURE
100
AcDbSpline
 62
7
  6
CONTINUOUS
 70
0
 71
3
 72
9
 73
5
 74
0
 42
0.0000001
 43
0.0000001
 44
0.0000000001
 40
0.0
 40
0.0
 40
0.0
 40
0.0
 40
0.2315523077
 40
1.0
 40
1.0
 40
1.0
 40
1.0
 10
14.6942388876
 20
12.1299429125
 30
0.0
 10
14.6940640324
 20
12.1297961347
 30
0.0
 10
14.6932683224
 20
12.1292104498
 30
0.0
 10
14.6923425654
 20
12.1288174039
 30
0.0
 10
14.6916164147
 20
12.1286012696
 30
0.0
  0
SPLINE
  5
28E
100
AcDbEntity
  8
LAYER_FEATURE
100
AcDbSpline
 62
7
  6
CONTINUOUS
 70
0
 71
3
 72
16
 73
12
 74
0
 42
0.0000001
 43
0.0000001
 44
0.0000000001
 40
0.0
 40
0.0
 40
0.0
 40
0.0
 40
0.1115874897
 40
0.2435787983
 40
0.3895071857
 40
0.5391107902
 40
0.6812594131
 40
0.8066472658
 40
0.9109158504
 40
0.9566411403
 40
1.0
 40
1.0
 40
1.0
 40
1.0
 10
14.7703254409
 20
12.1250296664
 30
0.0
 10
14.7690774945
 20
12.1279478597
 30
0.0
 10
14.7649129482
 20
12.1336940666
 30
0.0
 10
14.756135885
 20
12.1405893574
 30
0.0
 10
14.7451434299
 20
12.1459803683
 30
0.0
 10
14.7330696495
 20
12.1492921946
 30
0.0
 10
14.7211496083
 20
12.1501829902
 30
0.0
 10
14.7105965983
 20
12.1485750942
 30
0.0
 10
14.703386175
 20
12.1449483533
 30
0.0
 10
14.6996653959
 20
12.1408160605
 30
0.0
 10
14.6985459647
 20
12.1384958634
 30
0.0
 10
14.6981808537
 20
12.1373179129
 30
0.0
  0
SPLINE
  5
28F
100
AcDbEntity
  8
LAYER_FEATURE
100
AcDbSpline
 62
7
  6
CONTINUOUS
 70
0
 71
3
 72
9
 73
5
 74
0
 42
0.0000001
 43
0.0000001
 44
0.0000000001
 40
0.0
 40
0.0
 40
0.0
 40
0.0
 40
0.2725574739
 40
1.0
 40
1.0
 40
1.0
 40
1.0
 10
14.7757123786
 20
12.1177811282
 30
0.0
 10
14.7751073373
 20
12.1183399828
 30
0.0
 10
14.7729749399
 20
12.1204762317
 30
0.0
 10
14.7711897979
 20
12.1230084572
 30
0.0
 10
14.7703254409
 20
12.1250296664
 30
0.0
  0
SPLINE
  5
290
100
AcDbEntity
  8
LAYER_FEATURE
100
AcDbSpline
 62
7
  6
CONTINUOUS
 70
0
 71
3
 72
14
 73
10
 74
0
 42
0.0000001
 43
0.0000001
 44
0.0000000001
 40
0.0
 40
0.0
 40
0.0
 40
0.0
 40
0.0997089992
 40
0.2029639686
 40
0.3127334042
 40
0.4310767544
 40
0.5590978351
 40
0.6970298552
 40
1.0
 40
1.0
 40
1.0
 40
1.0
 10
16.660447968
 20
12.2730397569
 30
0.0
 10
16.6567057064
 20
12.2609298944
 30
0.0
 10
16.6460989778
 20
12.2371039676
 30
0.0
 10
16.6219043014
 20
12.2051804805
 30
0.0
 10
16.589932462
 20
12.1773522667
 30
0.0
 10
16.5508826894
 20
12.1540528656
 30
0.0
 10
16.5054763153
 20
12.1355913369
 30
0.0
 10
16.4353752291
 20
12.117222983
 30
0.0
 10
16.3790089841
 20
12.1124857769
 30
0.0
 10
16.3404957234
 20
12.1124857769
 30
0.0
  0
SPLINE
  5
291
100
AcDbEntity
  8
LAYER_CURVE
100
AcDbSpline
 62
40
  6
CONTINUOUS
 70
0
 71
3
 72
122
 73
118
 74
0
 42
0.0000001
 43
0.0000001
 44
0.0000000001
 40
0.0
 40
0.0
 40
0.0
 40
0.0
 40
0.03125
 40
0.046875
 40
0.0625
 40
0.078125
 40
0.0859375
 40
0.09375
 40
0.1015625
 40
0.10546875
 40
0.109375
 40
0.1171875
 40
0.125
 40
0.140625
 40
0.15625
 40
0.171875
 40
0.1875
 40
0.1953125
 40
0.197265625
 40
0.19921875
 40
0.203125
 40
0.20703125
 40
0.2109375
 40
0.21875
 40
0.234375
 40
0.25
 40
0.265625
 40
0.2734375
 40
0.28125
 40
0.2890625
 40
0.29296875
 40
0.296875
 40
0.30078125
 40
0.302734375
 40
0.3046875
 40
0.3125
 40
0.328125
 40
0.34375
 40
0.359375
 40
0.375
 40
0.3828125
 40
0.390625
 40
0.39453125
 40
0.3984375
 40
0.40625
 40
0.4140625
 40
0.421875
 40
0.4375
 40
0.453125
 40
0.46875
 40
0.4765625
 40
0.484375
 40
0.4921875
 40
0.49609375
 40
0.498046875
 40
0.5
 40
0.501953125
 40
0.50390625
 40
0.5078125
 40
0.515625
 40
0.5234375
 40
0.53125
 40
0.546875
 40
0.5625
 40
0.578125
 40
0.5859375
 40
0.59375
 40
0.6015625
 40
0.60546875
 40
0.609375
 40
0.6171875
 40
0.625
 40
0.640625
 40
0.65625
 40
0.671875
 40
0.6875
 40
0.69140625
 40
0.6953125
 40
0.697265625
 40
0.69921875
 40
0.703125
 40
0.70703125
 40
0.7109375
 40
0.71875
 40
0.7265625
 40
0.734375
 40
0.75
 40
0.765625
 40
0.7734375
 40
0.78125
 40
0.7890625
 40
0.79296875
 40
0.796875
 40
0.80078125
 40
0.802734375
 40
0.8046875
 40
0.80859375
 40
0.8125
 40
0.828125
 40
0.84375
 40
0.859375
 40
0.875
 40
0.8828125
 40
0.890625
 40
0.89453125
 40
0.896484375
 40
0.8984375
 40
0.900390625
 40
0.90234375
 40
0.90625
 40
0.9140625
 40
0.921875
 40
0.9296875
 40
0.9375
 40
0.953125
 40
0.96875
 40
1.0
 40
1.0
 40
1.0
 40
1.0
 10
14.8446781643
 20
12.1124857769
 30
0.0
 10
14.8346957198
 20
12.1131589392
 30
0.0
 10
14.8197220869
 20
12.1141684965
 30
0.0
 10
14.7997571081
 20
12.115515318
 30
0.0
 10
14.7847837114
 20
12.1165235712
 30
0.0
 10
14.7723048121
 20
12.1173696813
 30
0.0
 10
14.762324089
 20
12.1180333431
 30
0.0
 10
14.7548319989
 20
12.1185672289
 30
0.0
 10
14.7486094178
 20
12.1188971796
 30
0.0
 10
14.7434771948
 20
12.1200120034
 30
0.0
 10
14.7383718942
 20
12.1209782337
 30
0.0
 10
14.7319810491
 20
12.1222368939
 30
0.0
 10
14.7217608555
 20
12.1242223543
 30
0.0
 10
14.7089838019
 20
12.12671366
 30
0.0
 10
14.6936522951
 20
12.1297003155
 30
0.0
 10
14.6783198571
 20
12.1326834482
 30
0.0
 10
14.6655451314
 20
12.135183561
 30
0.0
 10
14.6572374413
 20
12.136782436
 30
0.0
 10
14.6534074424
 20
12.1375479505
 30
0.0
 10
14.6508434355
 20
12.1379901419
 30
0.0
 10
14.6477163246
 20
12.1390402316
 30
0.0
 10
14.6439537117
 20
12.1402359837
 30
0.0
 10
14.6389404104
 20
12.1418527678
 30
0.0
 10
14.6301654956
 20
12.1446716819
 30
0.0
 10
14.6176307546
 20
12.1487041627
 30
0.0
 10
14.6025887208
 20
12.1535408324
 30
0.0
 10
14.5900537058
 20
12.1575718006
 30
0.0
 10
14.5800258345
 20
12.1607967446
 30
0.0
 10
14.5725045008
 20
12.1632146982
 30
0.0
 10
14.5662380984
 20
12.1652321035
 30
0.0
 10
14.56122189
 20
12.1668405393
 30
0.0
 10
14.5574681676
 20
12.1680618653
 30
0.0
 10
14.5543132388
 20
12.1690319268
 30
0.0
 10
14.551988303
 20
12.1701619017
 30
0.0
 10
14.5484497686
 20
12.17176593
 30
0.0
 10
14.5408128216
 20
12.175294466
 30
0.0
 10
14.5290435317
 20
12.1806871171
 30
0.0
 10
14.5149288049
 20
12.187173483
 30
0.0
 10
14.5008126192
 20
12.1936564958
 30
0.0
 10
14.4890469766
 20
12.1990575297
 30
0.0
 10
14.4796403627
 20
12.2033835777
 30
0.0
 10
14.4737475559
 20
12.2060750439
 30
0.0
 10
14.469064651
 20
12.2082564647
 30
0.0
 10
14.4642673222
 20
12.2103347454
 30
0.0
 10
14.4590896649
 20
12.2136708369
 30
0.0
 10
14.4527702508
 20
12.2175783968
 30
0.0
 10
14.4443814779
 20
12.2228219278
 30
0.0
 10
14.4338827312
 20
12.2293648335
 30
0.0
 10
14.4212899133
 20
12.237221382
 30
0.0
 10
14.410794012
 20
12.2437669775
 30
0.0
 10
14.4023989791
 20
12.2490045908
 30
0.0
 10
14.3960987718
 20
12.2529303073
 30
0.0
 10
14.3908610046
 20
12.2562095753
 30
0.0
 10
14.3871702363
 20
12.2584896949
 30
0.0
 10
14.3850992149
 20
12.2598166144
 30
0.0
 10
14.3834389335
 20
12.2607442127
 30
0.0
 10
14.3821877192
 20
12.261930179
 30
0.0
 10
14.3803767462
 20
12.2634213458
 30
0.0
 10
14.3772740245
 20
12.2660728771
 30
0.0
 10
14.3728068044
 20
12.2698388257
 30
0.0
 10
14.3674610345
 20
12.2743673636
 30
0.0
 10
14.3603280613
 20
12.2804021161
 30
0.0
 10
14.3514142087
 20
12.2879467937
 30
0.0
 10
14.3407141593
 20
12.2969994169
 30
0.0
 10
14.3318057204
 20
12.3045449198
 30
0.0
 10
14.3246608368
 20
12.3105778564
 30
0.0
 10
14.3193516103
 20
12.3151119657
 30
0.0
 10
14.3147700228
 20
12.3188604783
 30
0.0
 10
14.3122685369
 20
12.322080683
 30
0.0
 10
14.3095638078
 20
12.3252622235
 30
0.0
 10
14.3062524898
 20
12.329252388
 30
0.0
 10
14.3009154695
 20
12.3356292505
 30
0.0
 10
14.294257657
 20
12.343602878
 30
0.0
 10
14.2862620278
 20
12.3531700951
 30
0.0
 10
14.2782698746
 20
12.3627377771
 30
0.0
 10
14.2722700223
 20
12.3699129956
 30
0.0
 10
14.2682785969
 20
12.3746972344
 30
0.0
 10
14.2666029698
 20
12.3766895518
 30
0.0
 10
14.2652917001
 20
12.3782860068
 30
0.0
 10
14.2638735293
 20
12.3798729497
 30
0.0
 10
14.2628660339
 20
12.3819247178
 30
0.0
 10
14.2615577925
 20
12.3843780086
 30
0.0
 10
14.2598481389
 20
12.3876521477
 30
0.0
 10
14.257699177
 20
12.3917437632
 30
0.0
 10
14.2551255158
 20
12.3966541548
 30
0.0
 10
14.2516921799
 20
12.4032011858
 30
0.0
 10
14.2474011847
 20
12.4113850256
 30
0.0
 10
14.2431097256
 20
12.4195688582
 30
0.0
 10
14.2396771319
 20
12.4261159007
 30
0.0
 10
14.2371012443
 20
12.4310262579
 30
0.0
 10
14.2349592401
 20
12.4351179808
 30
0.0
 10
14.2332353927
 20
12.4383919009
 30
0.0
 10
14.2319704979
 20
12.4408458605
 30
0.0
 10
14.230827385
 20
12.4428955359
 30
0.0
 10
14.2305719082
 20
12.4445004206
 30
0.0
 10
14.2302013513
 20
12.446111392
 30
0.0
 10
14.2297774899
 20
12.4481230258
 30
0.0
 10
14.2287278483
 20
12.4529526592
 30
0.0
 10
14.2271669845
 20
12.4601963899
 30
0.0
 10
14.2250780556
 20
12.4698551092
 30
0.0
 10
14.2229912249
 20
12.4795137165
 30
0.0
 10
14.2212516861
 20
12.4875625864
 30
0.0
 10
14.2198602378
 20
12.4940016651
 30
0.0
 10
14.2189903822
 20
12.4980261169
 30
0.0
 10
14.2183818642
 20
12.500843179
 30
0.0
 10
14.2180335468
 20
12.5024530134
 30
0.0
 10
14.2177739784
 20
12.5036601509
 30
0.0
 10
14.2175080278
 20
12.5048681992
 30
0.0
 10
14.2178224002
 20
12.5063834623
 30
0.0
 10
14.218060862
 20
12.5090796535
 30
0.0
 10
14.2185645005
 20
12.5129080967
 30
0.0
 10
14.2190990026
 20
12.5175121988
 30
0.0
 10
14.2196521948
 20
12.5221136337
 30
0.0
 10
14.2203832561
 20
12.5282498118
 30
0.0
 10
14.2212993191
 20
12.5359197153
 30
0.0
 10
14.2227637644
 20
12.5481917401
 30
0.0
 10
14.2238623808
 20
12.5573957184
 30
0.0
 10
14.224594729
 20
12.5635317128
 30
0.0
  0
LINE
  5
292
100
AcDbEntity
  8
LAYER_CURVE
100
AcDbLine
 62
40
  6
CONTINUOUS
 10
14.2248059618
 20
12.5642099777
 11
14.2258331423
 21
12.5673686147
  0
LINE
  5
293
100
AcDbEntity
  8
LAYER_CURVE
100
AcDbLine
 62
40
  6
CONTINUOUS
 10
14.2258331423
 20
12.5673686148
 11
14.2271716986
 21
12.5711862114
  0
SPLINE
  5
294
100
AcDbEntity
  8
LAYER_CURVE
100
AcDbSpline
 62
40
  6
CONTINUOUS
 70
0
 71
3
 72
24
 73
20
 74
0
 42
0.0000001
 43
0.0000001
 44
0.0000000001
 40
0.0
 40
0.0
 40
0.0
 40
0.0
 40
0.125
 40
0.25
 40
0.3125
 40
0.34375
 40
0.375
 40
0.4375
 40
0.46875
 40
0.5
 40
0.53125
 40
0.5625
 40
0.625
 40
0.65625
 40
0.6875
 40
0.75
 40
0.8125
 40
0.875
 40
1.0
 40
1.0
 40
1.0
 40
1.0
 10
14.2271716986
 20
12.5711862114
 30
0.0
 10
14.2277030736
 20
12.5725643776
 30
0.0
 10
14.2287361141
 20
12.5753259611
 30
0.0
 10
14.2301759616
 20
12.5787516846
 30
0.0
 10
14.2311787852
 20
12.5811067372
 30
0.0
 10
14.2317924926
 20
12.5825079365
 30
0.0
 10
14.232567901
 20
12.5841117751
 30
0.0
 10
14.2332997321
 20
12.5856686105
 30
0.0
 10
14.2340410192
 20
12.5872144761
 30
0.0
 10
14.2346121936
 20
12.5884537877
 30
0.0
 10
14.235117804
 20
12.5893789347
 30
0.0
 10
14.235811952
 20
12.5907191223
 30
0.0
 10
14.2365172225
 20
12.592047689
 30
0.0
 10
14.237174125
 20
12.5933311246
 30
0.0
 10
14.2380096693
 20
12.5948105794
 30
0.0
 10
14.2391149311
 20
12.5967149427
 30
0.0
 10
14.2404173656
 20
12.5990294455
 30
0.0
 10
14.2421515295
 20
12.6018419305
 30
0.0
 10
14.2434475687
 20
12.6038877923
 30
0.0
 10
14.2443126134
 20
12.6052658118
 30
0.0
  0
LINE
  5
295
100
AcDbEntity
  8
LAYER_CURVE
100
AcDbLine
 62
40
  6
CONTINUOUS
 10
14.2443126129
 20
12.605265811
 11
14.2449899057
 21
12.6062931367
  0
SPLINE
  5
296
100
AcDbEntity
  8
LAYER_CURVE
100
AcDbSpline
 62
40
  6
CONTINUOUS
 70
0
 71
3
 72
14
 73
10
 74
0
 42
0.0000001
 43
0.0000001
 44
0.0000000001
 40
0.0
 40
0.0
 40
0.0
 40
0.0
 40
0.25
 40
0.5
 40
0.625
 40
0.75
 40
0.8125
 40
0.875
 40
1.0
 40
1.0
 40
1.0
 40
1.0
 10
14.2449899056
 20
12.6062931367
 30
0.0
 10
14.2470143159
 20
12.609211336
 30
0.0
 10
14.2510994351
 20
12.6150311486
 30
0.0
 10
14.2566893841
 20
12.6220995229
 30
0.0
 10
14.2615347496
 20
12.6275698238
 30
0.0
 10
14.2646947672
 20
12.6309446939
 30
0.0
 10
14.2672001639
 20
12.6336078138
 30
0.0
 10
14.2699485172
 20
12.6363275337
 30
0.0
 10
14.2720686366
 20
12.638378409
 30
0.0
 10
14.2734689708
 20
12.6397431958
 30
0.0
  0
SPLINE
  5
297
100
AcDbEntity
  8
LAYER_CURVE
100
AcDbSpline
 62
40
  6
CONTINUOUS
 70
0
 71
3
 72
14
 73
10
 74
0
 42
0.0000001
 43
0.0000001
 44
0.0000000001
 40
0.0
 40
0.0
 40
0.0
 40
0.0
 40
0.25
 40
0.5
 40
0.625
 40
0.75
 40
0.8125
 40
0.875
 40
1.0
 40
1.0
 40
1.0
 40
1.0
 10
14.2740724866
 20
12.6403074915
 30
0.0
 10
14.2768934437
 20
12.6428432292
 30
0.0
 10
14.282568834
 20
12.6478953798
 30
0.0
 10
14.2901149487
 20
12.6539682436
 30
0.0
 10
14.2964927914
 20
12.6586147854
 30
0.0
 10
14.3006078289
 20
12.6614660392
 30
0.0
 10
14.3038603742
 20
12.6637105284
 30
0.0
 10
14.3074044686
 20
12.665999171
 30
0.0
 10
14.3101321364
 20
12.6677236484
 30
0.0
 10
14.3119351155
 20
12.6688715233
 30
0.0
  0
LINE
  5
298
100
AcDbEntity
  8
LAYER_CURVE
100
AcDbLine
 62
40
  6
CONTINUOUS
 10
14.3119351147
 20
12.6688715228
 11
14.3135865831
 21
12.6698780606
  0
SPLINE
  5
299
100
AcDbEntity
  8
LAYER_CURVE
100
AcDbSpline
 62
40
  6
CONTINUOUS
 70
0
 71
3
 72
14
 73
10
 74
0
 42
0.0000001
 43
0.0000001
 44
0.0000000001
 40
0.0
 40
0.0
 40
0.0
 40
0.0
 40
0.25
 40
0.5
 40
0.625
 40
0.75
 40
0.8125
 40
0.875
 40
1.0
 40
1.0
 40
1.0
 40
1.0
 10
14.3135865831
 20
12.6698780606
 30
0.0
 10
14.3171554741
 20
12.6719639763
 30
0.0
 10
14.324323138
 20
12.6761142193
 30
0.0
 10
14.3336913564
 20
12.6810282251
 30
0.0
 10
14.3414865073
 20
12.6847255515
 30
0.0
 10
14.3464798699
 20
12.6869738456
 30
0.0
 10
14.3504225411
 20
12.6887416107
 30
0.0
 10
14.3546858195
 20
12.6905232687
 30
0.0
 10
14.3579590953
 20
12.6918604129
 30
0.0
 10
14.3601244309
 20
12.6927516422
 30
0.0
  0
SPLINE
  5
29A
100
AcDbEntity
  8
LAYER_CURVE
100
AcDbSpline
 62
40
  6
CONTINUOUS
 70
0
 71
3
 72
14
 73
10
 74
0
 42
0.0000001
 43
0.0000001
 44
0.0000000001
 40
0.0
 40
0.0
 40
0.0
 40
0.0
 40
0.25
 40
0.5
 40
0.625
 40
0.75
 40
0.8125
 40
0.875
 40
1.0
 40
1.0
 40
1.0
 40
1.0
 10
14.3610090602
 20
12.6931005825
 30
0.0
 10
14.365229191
 20
12.6946981064
 30
0.0
 10
14.3736953138
 20
12.697869895
 30
0.0
 10
14.3846339854
 20
12.7015359836
 30
0.0
 10
14.3936409995
 20
12.7042192069
 30
0.0
 10
14.3993773012
 20
12.705824329
 30
0.0
 10
14.4039132146
 20
12.7070867288
 30
0.0
 10
14.4087544349
 20
12.7083223327
 30
0.0
 10
14.4124572495
 20
12.7092405284
 30
0.0
 10
14.414909815
 20
12.7098545494
 30
0.0
  0
LINE
  5
29B
100
AcDbEntity
  8
LAYER_CURVE
100
AcDbLine
 62
40
  6
CONTINUOUS
 10
14.4149098164
 20
12.7098545497
 11
14.4166256685
 21
12.7102600773
  0
SPLINE
  5
29C
100
AcDbEntity
  8
LAYER_CURVE
100
AcDbSpline
 62
40
  6
CONTINUOUS
 70
0
 71
3
 72
13
 73
9
 74
0
 42
0.0000001
 43
0.0000001
 44
0.0000000001
 40
0.0
 40
0.0
 40
0.0
 40
0.0
 40
0.5
 40
0.625
 40
0.75
 40
0.8125
 40
0.875
 40
1.0
 40
1.0
 40
1.0
 40
1.0
 10
14.4166256685
 20
12.7102600772
 30
0.0
 10
14.4261886987
 20
12.7123940985
 30
0.0
 10
14.4382481655
 20
12.7149618542
 30
0.0
 10
14.4532930378
 20
12.7173525962
 30
0.0
 10
14.459643718
 20
12.7182712407
 30
0.0
 10
14.464684001
 20
12.7189930395
 30
0.0
 10
14.4699623088
 20
12.719650525
 30
0.0
 10
14.4739771907
 20
12.7201264677
 30
0.0
 10
14.4766413006
 20
12.7204475787
 30
0.0
  0
SPLINE
  5
29D
100
AcDbEntity
  8
LAYER_CURVE
100
AcDbSpline
 62
40
  6
CONTINUOUS
 70
0
 71
3
 72
16
 73
12
 74
0
 42
0.0000001
 43
0.0000001
 44
0.0000000001
 40
0.0
 40
0.0
 40
0.0
 40
0.0
 40
0.25
 40
0.5
 40
0.625
 40
0.75
 40
0.8125
 40
0.84375
 40
0.875
 40
0.9375
 40
1.0
 40
1.0
 40
1.0
 40
1.0
 10
14.4789476299
 20
12.7206982343
 30
0.0
 10
14.4841816495
 20
12.721207646
 30
0.0
 10
14.4946659648
 20
12.7222010518
 30
0.0
 10
14.507996246
 20
12.7231170109
 30
0.0
 10
14.5188124023
 20
12.7235813931
 30
0.0
 10
14.5256371792
 20
12.7237957519
 30
0.0
 10
14.5303810883
 20
12.7239245532
 30
0.0
 10
14.5331685569
 20
12.7239889729
 30
0.0
 10
14.5362516133
 20
12.7240073969
 30
0.0
 10
14.5400033394
 20
12.7240463136
 30
0.0
 10
14.5430358347
 20
12.7240726052
 30
0.0
 10
14.5445481931
 20
12.7240863563
 30
0.0
  0
SPLINE
  5
29E
100
AcDbEntity
  8
LAYER_CURVE
100
AcDbSpline
 62
40
  6
CONTINUOUS
 70
0
 71
3
 72
122
 73
118
 74
0
 42
0.0000001
 43
0.0000001
 44
0.0000000001
 40
0.0
 40
0.0
 40
0.0
 40
0.0
 40
0.03125
 40
0.046875
 40
0.0625
 40
0.078125
 40
0.0859375
 40
0.09375
 40
0.1015625
 40
0.10546875
 40
0.109375
 40
0.1171875
 40
0.125
 40
0.140625
 40
0.15625
 40
0.171875
 40
0.1875
 40
0.1953125
 40
0.197265625
 40
0.19921875
 40
0.203125
 40
0.20703125
 40
0.2109375
 40
0.21875
 40
0.234375
 40
0.25
 40
0.265625
 40
0.2734375
 40
0.28125
 40
0.2890625
 40
0.29296875
 40
0.296875
 40
0.30078125
 40
0.302734375
 40
0.3046875
 40
0.3125
 40
0.328125
 40
0.34375
 40
0.359375
 40
0.375
 40
0.3828125
 40
0.390625
 40
0.39453125
 40
0.3984375
 40
0.40625
 40
0.4140625
 40
0.421875
 40
0.4375
 40
0.453125
 40
0.46875
 40
0.4765625
 40
0.484375
 40
0.4921875
 40
0.49609375
 40
0.498046875
 40
0.5
 40
0.501953125
 40
0.50390625
 40
0.5078125
 40
0.515625
 40
0.5234375
 40
0.53125
 40
0.546875
 40
0.5625
 40
0.578125
 40
0.5859375
 40
0.59375
 40
0.6015625
 40
0.60546875
 40
0.609375
 40
0.6171875
 40
0.625
 40
0.640625
 40
0.65625
 40
0.671875
 40
0.6875
 40
0.69140625
 40
0.6953125
 40
0.697265625
 40
0.69921875
 40
0.703125
 40
0.70703125
 40
0.7109375
 40
0.71875
 40
0.7265625
 40
0.734375
 40
0.75
 40
0.765625
 40
0.7734375
 40
0.78125
 40
0.7890625
 40
0.79296875
 40
0.796875
 40
0.80078125
 40
0.802734375
 40
0.8046875
 40
0.80859375
 40
0.8125
 40
0.828125
 40
0.84375
 40
0.859375
 40
0.875
 40
0.8828125
 40
0.890625
 40
0.89453125
 40
0.896484375
 40
0.8984375
 40
0.900390625
 40
0.90234375
 40
0.90625
 40
0.9140625
 40
0.921875
 40
0.9296875
 40
0.9375
 40
0.953125
 40
0.96875
 40
1.0
 40
1.0
 40
1.0
 40
1.0
 10
16.0403657514
 20
12.7240863563
 30
0.0
 10
16.0501757968
 20
12.7234357423
 30
0.0
 10
16.0648908068
 20
12.7224600076
 30
0.0
 10
16.0845110524
 20
12.7211582825
 30
0.0
 10
16.099225656
 20
12.7201838527
 30
0.0
 10
16.1114896641
 20
12.7193659253
 30
0.0
 10
16.1212967486
 20
12.7187248173
 30
0.0
 10
16.1286633249
 20
12.718207826
 30
0.0
 10
16.1347663128
 20
12.7178920203
 30
0.0
 10
16.1399138766
 20
12.7167880225
 30
0.0
 10
16.1450151304
 20
12.7158327038
 30
0.0
 10
16.1514075553
 20
12.7145876537
 30
0.0
 10
16.1616265667
 20
12.7126239859
 30
0.0
 10
16.1744034139
 20
12.7101599157
 30
0.0
 10
16.1897341348
 20
12.7072059433
 30
0.0
 10
16.2050659059
 20
12.7042555002
 30
0.0
 10
16.2178401276
 20
12.7017826069
 30
0.0
 10
16.2261473407
 20
12.7002014643
 30
0.0
 10
16.2299772822
 20
12.6994440923
 30
0.0
 10
16.2325408473
 20
12.6990074326
 30
0.0
 10
16.2356703511
 20
12.6979635022
 30
0.0
 10
16.2394354544
 20
12.6967752388
 30
0.0
 10
16.244452209
 20
12.6951684058
 30
0.0
 10
16.2532331054
 20
12.6923669219
 30
0.0
 10
16.2657764237
 20
12.6883593331
 30
0.0
 10
16.2808287367
 20
12.6835525372
 30
0.0
 10
16.2933723201
 20
12.6795464634
 30
0.0
 10
16.3034070471
 20
12.6763414344
 30
0.0
 10
16.3109335178
 20
12.6739384189
 30
0.0
 10
16.3172042168
 20
12.6719334559
 30
0.0
 10
16.3222238272
 20
12.6703349876
 30
0.0
 10
16.3259801971
 20
12.6691211002
 30
0.0
 10
16.3291370271
 20
12.6681573555
 30
0.0
 10
16.3314657465
 20
12.6670315582
 30
0.0
 10
16.335009375
 20
12.6654340214
 30
0.0
 10
16.3426576996
 20
12.6619194182
 30
0.0
 10
16.3544442573
 20
12.6565482959
 30
0.0
 10
16.3685798333
 20
12.650087705
 30
0.0
 10
16.3827167347
 20
12.6436305555
 30
0.0
 10
16.3944999791
 20
12.6382508298
 30
0.0
 10
16.4039199281
 20
12.6339423712
 30
0.0
 10
16.409822766
 20
12.6312606634
 30
0.0
 10
16.4145098105
 20
12.6290898775
 30
0.0
 10
16.4193254621
 20
12.6270119073
 30
0.0
 10
16.4244245062
 20
12.6237501018
 30
0.0
 10
16.430662751
 20
12.6199221006
 30
0.0
 10
16.4389386992
 20
12.614787996
 30
0.0
 10
16.4492979914
 20
12.6083807237
 30
0.0
 10
16.4617227957
 20
12.6006874313
 30
0.0
 10
16.4720788111
 20
12.5942777618
 30
0.0
 10
16.4803619683
 20
12.589148931
 30
0.0
 10
16.4865780942
 20
12.5853047492
 30
0.0
 10
16.4917463623
 20
12.5820935829
 30
0.0
 10
16.4953873632
 20
12.5798608295
 30
0.0
 10
16.497431692
 20
12.5785614525
 30
0.0
 10
16.4990670357
 20
12.5776531699
 30
0.0
 10
16.5003121128
 20
12.5764916457
 30
0.0
 10
16.5021083449
 20
12.5750312803
 30
0.0
 10
16.5051883256
 20
12.5724344845
 30
0.0
 10
16.5096214609
 20
12.5687462941
 30
0.0
 10
16.5149270142
 20
12.5643112513
 30
0.0
 10
16.5220061196
 20
12.558401099
 30
0.0
 10
16.5308527662
 20
12.5510121592
 30
0.0
 10
16.5414719193
 20
12.542146572
 30
0.0
 10
16.5503136031
 20
12.5347564464
 30
0.0
 10
16.5574036267
 20
12.5288489026
 30
0.0
 10
16.562675681
 20
12.5244058566
 30
0.0
 10
16.5672136555
 20
12.5207427132
 30
0.0
 10
16.5697737805
 20
12.5175206128
 30
0.0
 10
16.5725208146
 20
12.5143494349
 30
0.0
 10
16.5758906067
 20
12.5103680263
 30
0.0
 10
16.5813180595
 20
12.5040075192
 30
0.0
 10
16.5880899861
 20
12.4960535301
 30
0.0
 10
16.5962220894
 20
12.4865102283
 30
0.0
 10
16.6043508501
 20
12.4769663545
 30
0.0
 10
16.6104531049
 20
12.4698090514
 30
0.0
 10
16.6145128456
 20
12.4650366909
 30
0.0
 10
16.6162168738
 20
12.4630494153
 30
0.0
 10
16.6175510123
 20
12.4614567782
 30
0.0
 10
16.6189915114
 20
12.4598744413
 30
0.0
 10
16.6200307854
 20
12.4578227901
 30
0.0
 10
16.6213766595
 20
12.4553703713
 30
0.0
 10
16.6231366652
 20
12.4520971392
 30
0.0
 10
16.6253485072
 20
12.4480067451
 30
0.0
 10
16.6279976501
 20
12.4430977817
 30
0.0
 10
16.6315316193
 20
12.4365526682
 30
0.0
 10
16.6359484095
 20
12.4283712202
 30
0.0
 10
16.6403656617
 20
12.4201897827
 30
0.0
 10
16.6438988916
 20
12.4136446525
 30
0.0
 10
16.6465502526
 20
12.4087357393
 30
0.0
 10
16.6487551631
 20
12.4046451883
 30
0.0
 10
16.6505293088
 20
12.4013722763
 30
0.0
 10
16.6518320006
 20
12.39891888
 30
0.0
 10
16.6530063783
 20
12.3968702871
 30
0.0
 10
16.6532885884
 20
12.39526173
 30
0.0
 10
16.6536855781
 20
12.3936478788
 30
0.0
 10
16.6541425831
 20
12.3916323743
 30
0.0
 10
16.655271685
 20
12.3867936742
 30
0.0
 10
16.6569517748
 20
12.3795362496
 30
0.0
 10
16.6591996513
 20
12.3698593254
 30
0.0
 10
16.6614454351
 20
12.3601824992
 30
0.0
 10
16.6633174332
 20
12.352118449
 30
0.0
 10
16.6648148501
 20
12.3456672278
 30
0.0
 10
16.6657509339
 20
12.3416351814
 30
0.0
 10
16.666405816
 20
12.3388128144
 30
0.0
 10
16.6667806203
 20
12.337199931
 30
0.0
 10
16.6670600732
 20
12.3359905566
 30
0.0
 10
16.6673458347
 20
12.3347800806
 30
0.0
 10
16.6670655799
 20
12.333281577
 30
0.0
 10
16.6668832349
 20
12.3306053982
 30
0.0
 10
16.6664616399
 20
12.3268104158
 30
0.0
 10
16.6660247855
 20
12.3222443783
 30
0.0
 10
16.6655694562
 20
12.3176815667
 30
0.0
 10
16.6649688035
 20
12.3115966912
 30
0.0
 10
16.6642157772
 20
12.3039909827
 30
0.0
 10
16.6630121761
 20
12.2918216325
 30
0.0
 10
16.662109196
 20
12.2826946686
 30
0.0
 10
16.6615072713
 20
12.2766100152
 30
0.0
  0
LINE
  5
29F
100
AcDbEntity
  8
LAYER_CURVE
100
AcDbLine
 62
40
  6
CONTINUOUS
 10
16.6615072684
 20
12.2766100048
 11
16.6607419733
 21
12.2739984376
  0
SPLINE
  5
2A0
100
AcDbEntity
  8
LAYER_CURVE
100
AcDbSpline
 62
40
  6
CONTINUOUS
 70
0
 71
3
 72
79
 73
75
 74
0
 42
0.0000001
 43
0.0000001
 44
0.0000000001
 40
0.0
 40
0.0
 40
0.0
 40
0.0
 40
0.0625
 40
0.09375
 40
0.109375
 40
0.125
 40
0.140625
 40
0.15625
 40
0.16015625
 40
0.1640625
 40
0.166015625
 40
0.16796875
 40
0.171875
 40
0.1796875
 40
0.1875
 40
0.203125
 40
0.21875
 40
0.25
 40
0.28125
 40
0.296875
 40
0.3125
 40
0.3203125
 40
0.328125
 40
0.33203125
 40
0.333984375
 40
0.3359375
 40
0.33984375
 40
0.34375
 40
0.359375
 40
0.375
 40
0.390625
 40
0.40625
 40
0.4375
 40
0.453125
 40
0.46875
 40
0.484375
 40
0.4921875
 40
0.49609375
 40
0.5
 40
0.50390625
 40
0.5078125
 40
0.515625
 40
0.53125
 40
0.546875
 40
0.5625
 40
0.59375
 40
0.609375
 40
0.625
 40
0.640625
 40
0.65625
 40
0.66015625
 40
0.6640625
 40
0.66796875
 40
0.671875
 40
0.6796875
 40
0.6875
 40
0.703125
 40
0.71875
 40
0.75
 40
0.78125
 40
0.796875
 40
0.8125
 40
0.8203125
 40
0.828125
 40
0.83203125
 40
0.8359375
 40
0.83984375
 40
0.84375
 40
0.859375
 40
0.875
 40
0.890625
 40
0.90625
 40
0.9375
 40
1.0
 40
1.0
 40
1.0
 40
1.0
 10
16.6604491492
 20
12.2730402989
 30
0.0
 10
16.6576798501
 20
12.2673704411
 30
0.0
 10
16.6535259762
 20
12.2588656226
 30
0.0
 10
16.6486795282
 20
12.2489434457
 30
0.0
 10
16.6459105033
 20
12.2432734712
 30
0.0
 10
16.6438326876
 20
12.2390214359
 30
0.0
 10
16.6417588731
 20
12.2347676978
 30
0.0
 10
16.6401922938
 20
12.2315821686
 30
0.0
 10
16.6391653546
 20
12.2294510572
 30
0.0
 10
16.6387115012
 20
12.2285741433
 30
0.0
 10
16.6384089828
 20
12.2278468368
 30
0.0
 10
16.6378849767
 20
12.2272137923
 30
0.0
 10
16.6368650579
 20
12.2261497608
 30
0.0
 10
16.6354617234
 20
12.2246068651
 30
0.0
 10
16.6331863818
 20
12.2221510022
 30
0.0
 10
16.6303524834
 20
12.2190767989
 30
0.0
 10
16.6258124757
 20
12.2141605309
 30
0.0
 10
16.6201396291
 20
12.2080142657
 30
0.0
 10
16.614465343
 20
12.2018686498
 30
0.0
 10
16.6099276385
 20
12.1969513429
 30
0.0
 10
16.607087982
 20
12.193879737
 30
0.0
 10
16.6048244445
 20
12.1914185495
 30
0.0
 10
16.6033910598
 20
12.1898892088
 30
0.0
 10
16.6024251145
 20
12.188800831
 30
0.0
 10
16.6018145924
 20
12.188206812
 30
0.0
 10
16.6009835294
 20
12.1877179201
 30
0.0
 10
16.6000200825
 20
12.1870708723
 30
0.0
 10
16.5976457672
 20
12.185547532
 30
0.0
 10
16.594110354
 20
12.1832500992
 30
0.0
 10
16.5893815701
 20
12.1801939598
 30
0.0
 10
16.5846567905
 20
12.1771359044
 30
0.0
 10
16.5783555943
 20
12.1730592433
 30
0.0
 10
16.5720553295
 20
12.168981937
 30
0.0
 10
16.5657533882
 20
12.1649060069
 30
0.0
 10
16.5610310302
 20
12.1618455761
 30
0.0
 10
16.5570827705
 20
12.1593062543
 30
0.0
 10
16.5543444147
 20
12.1575070747
 30
0.0
 10
16.552739941
 20
12.1565127827
 30
0.0
 10
16.5516484181
 20
12.1556718187
 30
0.0
 10
16.550129415
 20
12.1551949295
 30
0.0
 10
16.5482531875
 20
12.1544320838
 30
0.0
 10
16.5449003163
 20
12.1531562724
 30
0.0
 10
16.5401468215
 20
12.151302751
 30
0.0
 10
16.5344270817
 20
12.1490917651
 30
0.0
 10
16.5268061889
 20
12.1461391632
 30
0.0
 10
16.5191838266
 20
12.1431878057
 30
0.0
 10
16.5115618024
 20
12.1402361805
 30
0.0
 10
16.5058457396
 20
12.1380220202
 30
0.0
 10
16.5001276863
 20
12.1358097595
 30
0.0
 10
16.4958447762
 20
12.1341451963
 30
0.0
 10
16.4929807418
 20
12.13304384
 30
0.0
 10
16.49156437
 20
12.1324782462
 30
0.0
 10
16.4900871687
 20
12.1319706442
 30
0.0
 10
16.4878281286
 20
12.1315697768
 30
0.0
 10
16.4851034319
 20
12.1309742127
 30
0.0
 10
16.4806885324
 20
12.130074111
 30
0.0
 10
16.4751888797
 20
12.1289308967
 30
0.0
 10
16.4663787862
 20
12.1271119102
 30
0.0
 10
16.455370152
 20
12.1248343525
 30
0.0
 10
16.4443588985
 20
12.1225593976
 30
0.0
 10
16.4355529958
 20
12.1207362467
 30
0.0
 10
16.4300428661
 20
12.1196034433
 30
0.0
 10
16.4256494446
 20
12.1186819992
 30
0.0
 10
16.4228700707
 20
12.1181407672
 30
0.0
 10
16.4207232661
 20
12.1176283727
 30
0.0
 10
16.4189031703
 20
12.117461501
 30
0.0
 10
16.4170242307
 20
12.1173555558
 30
0.0
 10
16.413296621
 20
12.1171123245
 30
0.0
 10
16.4076924929
 20
12.116760641
 30
0.0
 10
16.4002275885
 20
12.116284206
 30
0.0
 10
16.3927607404
 20
12.1158097837
 30
0.0
 10
16.3828056211
 20
12.1151765183
 30
0.0
 10
16.3653838445
 20
12.1140686331
 30
0.0
 10
16.350451002
 20
12.1131189043
 30
0.0
 10
16.3404957495
 20
12.1124857769
 30
0.0
  0
SPLINE
  5
2A1
100
AcDbEntity
  8
LAYER_FEATURE
100
AcDbSpline
 62
7
  6
CONTINUOUS
 70
0
 71
3
 72
20
 73
16
 74
0
 42
0.0000001
 43
0.0000001
 44
0.0000000001
 40
0.0
 40
0.0
 40
0.0
 40
0.0
 40
0.0897518339
 40
0.1828500651
 40
0.2776634639
 40
0.3724651798
 40
0.4655290019
 40
0.5552256561
 40
0.6401249863
 40
0.7191114453
 40
0.791522723
 40
0.8573206556
 40
0.9172859278
 40
0.9731633006
 40
1.0
 40
1.0
 40
1.0
 40
1.0
 10
16.0403657514
 20
12.7240863563
 30
0.0
 10
16.0659458736
 20
12.7240863563
 30
0.0
 10
16.1180922751
 20
12.7211228031
 30
0.0
 10
16.1963628585
 20
12.7086723132
 30
0.0
 10
16.2744846048
 20
12.6884441722
 30
0.0
 10
16.3503521384
 20
12.6609803889
 30
0.0
 10
16.4219380076
 20
12.6270160912
 30
0.0
 10
16.4873297432
 20
12.5874569934
 30
0.0
 10
16.5447905485
 20
12.5433473645
 30
0.0
 10
16.5928030932
 20
12.4958283947
 30
0.0
 10
16.6300960501
 20
12.4460865963
 30
0.0
 10
16.6556301646
 20
12.3953041317
 30
0.0
 10
16.6685262759
 20
12.3446627811
 30
0.0
 10
16.6680965169
 20
12.3034747834
 30
0.0
 10
16.6627037435
 20
12.2803774183
 30
0.0
 10
16.6604370624
 20
12.2730431273
 30
0.0
  0
SPLINE
  5
2A2
100
AcDbEntity
  8
LAYER_FEATURE
100
AcDbSpline
 62
7
  6
CONTINUOUS
 70
0
 71
3
 72
26
 73
22
 74
0
 42
0.0000001
 43
0.0000001
 44
0.0000000001
 40
0.0
 40
0.0
 40
0.0
 40
0.0
 40
0.0620712714
 40
0.1264568701
 40
0.1920286578
 40
0.2575923659
 40
0.3219541678
 40
0.3839872775
 40
0.4427026165
 40
0.4973286862
 40
0.5474074408
 40
0.5929124867
 40
0.6343837361
 40
0.6730278441
 40
0.7106544491
 40
0.7493255914
 40
0.7908444829
 40
0.836408704
 40
0.8865497244
 40
0.9412344821
 40
1.0
 40
1.0
 40
1.0
 40
1.0
 10
16.0975467727
 20
12.9091242089
 30
0.0
 10
16.1231268949
 20
12.9091242089
 30
0.0
 10
16.1752732964
 20
12.9061606558
 30
0.0
 10
16.2535438798
 20
12.8937101658
 30
0.0
 10
16.3316656261
 20
12.8734820248
 30
0.0
 10
16.4075331596
 20
12.8460182416
 30
0.0
 10
16.4791190289
 20
12.8120539438
 30
0.0
 10
16.5445107645
 20
12.772494846
 30
0.0
 10
16.6019715698
 20
12.7283852172
 30
0.0
 10
16.6499841145
 20
12.6808662474
 30
0.0
 10
16.6872770714
 20
12.631124449
 30
0.0
 10
16.7128111859
 20
12.5803419844
 30
0.0
 10
16.7257072972
 20
12.5297006338
 30
0.0
 10
16.7251944974
 20
12.4805540273
 30
0.0
 10
16.7109137854
 20
12.4346662593
 30
0.0
 10
16.6834409932
 20
12.3938769513
 30
0.0
 10
16.6440726282
 20
12.3594304535
 30
0.0
 10
16.594208887
 20
12.3320046197
 30
0.0
 10
16.535240756
 20
12.3120779117
 30
0.0
 10
16.4687063681
 20
12.3000384305
 30
0.0
 10
16.4218945365
 20
12.2975236295
 30
0.0
 10
16.3976767447
 20
12.2975236295
 30
0.0
  0
SPLINE
  5
2A3
100
AcDbEntity
  8
LAYER_FEATURE
100
AcDbSpline
 62
7
  6
CONTINUOUS
 70
0
 71
3
 72
11
 73
7
 74
0
 42
0.0000001
 43
0.0000001
 44
0.0000000001
 40
0.0
 40
0.0
 40
0.0
 40
0.0
 40
0.2852488766
 40
0.5811332577
 40
0.8824687769
 40
1.0
 40
1.0
 40
1.0
 40
1.0
 10
14.8446781643
 20
12.1124857769
 30
0.0
 10
14.819098042
 20
12.1124857769
 30
0.0
 10
14.7669516405
 20
12.1154493301
 30
0.0
 10
14.6886810572
 20
12.12789982
 30
0.0
 10
14.6265369622
 20
12.1439908519
 30
0.0
 10
14.5908459757
 20
12.1557662781
 30
0.0
 10
14.5808960072
 20
12.1592546087
 30
0.0
  0
SPLINE
  5
2A4
100
AcDbEntity
  8
LAYER_FEATURE
100
AcDbSpline
 62
7
  6
CONTINUOUS
 70
0
 71
3
 72
16
 73
12
 74
0
 42
0.0000001
 43
0.0000001
 44
0.0000000001
 40
0.0
 40
0.0
 40
0.0
 40
0.0
 40
0.0656240523
 40
0.1643836771
 40
0.2605429515
 40
0.3593716658
 40
0.4654781426
 40
0.5819229413
 40
0.7100642962
 40
0.8498177136
 40
1.0
 40
1.0
 40
1.0
 40
1.0
 10
14.2818363103
 20
12.6472017628
 30
0.0
 10
14.2790138316
 20
12.6574279499
 30
0.0
 10
14.2737674437
 20
12.6835393153
 30
0.0
 10
14.2742114608
 20
12.7260938112
 30
0.0
 10
14.2884921728
 20
12.7719815792
 30
0.0
 10
14.315964965
 20
12.8127708872
 30
0.0
 10
14.3553333301
 20
12.847217385
 30
0.0
 10
14.4051970712
 20
12.8746432188
 30
0.0
 10
14.4641652022
 20
12.8945699267
 30
0.0
 10
14.5306995901
 20
12.906609408
 30
0.0
 10
14.5775114217
 20
12.9091242089
 30
0.0
 10
14.6017292135
 20
12.9091242089
 30
0.0
  0
SPLINE
  5
2A5
100
AcDbEntity
  8
LAYER_FEATURE
100
AcDbSpline
 62
7
  6
CONTINUOUS
 70
0
 71
3
 72
11
 73
7
 74
0
 42
0.0000001
 43
0.0000001
 44
0.0000000001
 40
0.0
 40
0.0
 40
0.0
 40
0.0
 40
0.285252431
 40
0.5811404991
 40
0.8824797732
 40
1.0
 40
1.0
 40
1.0
 40
1.0
 10
14.9018591855
 20
12.2975236295
 30
0.0
 10
14.8762790633
 20
12.2975236295
 30
0.0
 10
14.8241326618
 20
12.3004871827
 30
0.0
 10
14.7458620785
 20
12.3129376727
 30
0.0
 10
14.6837190669
 20
12.3290284241
 30
0.0
 10
14.6480291205
 20
12.3408034302
 30
0.0
 10
14.6380801932
 20
12.3442913519
 30
0.0
  0
ENDSEC
  0
SECTION
  2
OBJECTS
  0
DICTIONARY
  5
C
100
AcDbDictionary
280
0
281
1
  3
ACAD_GROUP
350
D
  3
ACAD_MLINESTYLE
350
17
  3
ACAD_LAYOUT
350
1A
  3
ACAD_PLOTSETTINGS
350
19
  3
ACAD_PLOTSTYLENAME
350
E
  0
DICTIONARY
  5
D
102
{ACAD_REACTORS
330
C
102
}
100
AcDbDictionary
280
0
281
1
  0
ACDBDICTIONARYWDFLT
  5
E
102
{ACAD_REACTORS
330
C
102
}
100
AcDbDictionary
281
1
  3
Normal
350
F
100
AcDbDictionaryWithDefault
340
F
  0
DICTIONARY
  5
17
102
{ACAD_REACTORS
330
C
102
}
100
AcDbDictionary
280
0
281
1
  3
Standard
350
18
  0
DICTIONARY
  5
19
102
{ACAD_REACTORS
330
C
102
}
100
AcDbDictionary
281
1
  0
DICTIONARY
  5
1A
102
{ACAD_REACTORS
330
C
102
}
100
AcDbDictionary
281
1
  3
Model
350
2A6
  3
Layout1
350
2A7
  0
ACDBPLACEHOLDER
  5
F
102
{ACAD_REACTORS
330
E
102
}
  0
MLINESTYLE
  5
18
102
{ACAD_REACTORS
330
17
102
}
100
AcDbMlineStyle
  2
STANDARD
 70
0
  3

 62
256
 51
90.0
 52
90.0
 71
2
 49
0.5
 62
256
  6
BYLAYER
 49
-0.5
 62
256
  6
BYLAYER
  0
LAYOUT
  5
2A6
102
{ACAD_REACTORS
330
1A
102
}
100
AcDbPlotSettings
  1

  2
none_device
  4
ANSI_C_(22.00_x_17.00_Inches)
  6

 40
0.0
 41
0.0
 42
0.0
 43
0.0
 44
558.8
 45
431.8
 46
0.0
 47
0.0
 48
0.0
 49
0.0
140
0.0
141
0.0
142
1.0
143
1.0
 70
1024
 72
0
 73
0
 74
0
  7

 75
0
147
1.0
148
0.0
149
0.0
100
AcDbLayout
  1
Model
 70
0
 71
0
 10
0.0
 20
0.0
 11
22.0
 21
17.0
 12
0.0
 22
0.0
 32
0.0
 14
0.0
 24
0.0
 34
0.0
 15
0.0
 25
0.0
 35
0.0
146
0.0
 13
0.0
 23
0.0
 33
0.0
 16
1.0
 26
0.0
 36
0.0
 17
0.0
 27
1.0
 37
0.0
 76
0
330
225
345
0
346
0
  0
LAYOUT
  5
2A7
102
{ACAD_REACTORS
330
1A
102
}
100
AcDbPlotSettings
  1

  2
none_device
  4
ANSI_C_(22.00_x_17.00_Inches)
  6

 40
0.0
 41
0.0
 42
0.0
 43
0.0
 44
558.8
 45
431.8
 46
0.0
 47
0.0
 48
0.0
 49
0.0
140
0.0
141
0.0
142
1.0
143
1.0
 70
0
 72
0
 73
0
 74
0
  7

 75
0
147
1.0
148
0.0
149
0.0
100
AcDbLayout
  1
Layout1
 70
0
 71
1
 10
0.0
 20
0.0
 11
22.0
 21
17.0
 12
0.0
 22
0.0
 32
0.0
 14
0.0
 24
0.0
 34
0.0
 15
0.0
 25
0.0
 35
0.0
146
0.0
 13
0.0
 23
0.0
 33
0.0
 16
1.0
 26
0.0
 36
0.0
 17
0.0
 27
1.0
 37
0.0
 76
0
330
226
345
0
346
0
  0
ENDSEC
  0
EOF
